<?xml version="1.0" encoding="UTF-8" standalone="no"?>
<!DOCTYPE svg PUBLIC "-//W3C//DTD SVG 1.1//EN" "http://www.w3.org/Graphics/SVG/1.1/DTD/svg11.dtd">
<svg width="100%" height="100%" viewBox="0 0 511 512" version="1.1" xmlns="http://www.w3.org/2000/svg" xmlns:xlink="http://www.w3.org/1999/xlink" xml:space="preserve" xmlns:serif="http://www.serif.com/" style="fill-rule:evenodd;clip-rule:evenodd;stroke-linejoin:round;stroke-miterlimit:1.41421;">
    <g transform="matrix(0.953471,0,0,0.953471,12.1121,15.2898)">
        <path d="M512.441,245.641C510.914,178.66 483.43,116.242 435.063,69.887C386.762,23.602 323.332,-1.191 256.473,0.047C189.59,-1.207 126.184,23.602 77.887,69.887C29.516,116.242 2.035,178.66 0.504,245.637L0.5,245.848L0.5,246.059C0.852,314.316 30.078,379.215 80.82,424.699L80.82,486.586C80.82,498.598 89.207,509.059 100.758,511.465C102.469,511.82 104.191,512 105.906,512C110.555,512 115.125,510.699 119.148,508.187L168.887,477.113C196.938,486.937 226.207,491.914 255.965,491.914L256.34,491.914C257.988,491.945 259.617,491.961 261.262,491.961C326.367,491.957 387.918,467.25 435.063,422.074C483.43,375.719 510.914,313.301 512.441,246.324L512.449,245.98L512.441,245.641ZM414.285,400.395C371.691,441.215 315.75,463.055 256.77,461.891L256.605,461.887L256.441,461.887C228.766,461.949 201.527,457.133 175.523,447.598C169.094,445.242 162.09,445.961 156.305,449.574L110.848,477.969L110.848,421.043C110.848,414.691 108.086,408.648 103.27,404.465C57.406,364.594 30.902,306.883 30.531,246.113C31.93,187.215 56.117,132.34 98.664,91.566C141.254,50.75 197.211,28.918 256.176,30.074L256.473,30.078L256.77,30.074C315.738,28.93 371.691,50.75 414.285,91.566C456.793,132.305 480.98,187.137 482.414,245.98C480.98,304.828 456.793,359.656 414.285,400.395Z" style="fill:rgb(255,241,0);fill-rule:nonzero;"/>
    </g>
    <path d="M366.477,174.273L146.469,174.273C138.18,174.273 131.457,180.992 131.457,189.285C131.457,197.578 138.18,204.301 146.469,204.301L366.477,204.301C374.77,204.301 381.492,197.578 381.492,189.285C381.492,180.992 374.77,174.273 366.477,174.273Z" style="fill:rgb(255,241,0);fill-rule:nonzero;"/>
    <path d="M366.477,240.688L146.469,240.688C138.18,240.688 131.457,247.41 131.457,255.699C131.457,263.992 138.18,270.715 146.469,270.715L366.477,270.715C374.77,270.715 381.492,263.992 381.492,255.699C381.492,247.41 374.77,240.687 366.477,240.687L366.477,240.688Z" style="fill:rgb(255,241,0);fill-rule:nonzero;"/>
    <path d="M366.477,307.102L258.305,307.102C250.016,307.102 243.293,313.824 243.293,322.117C243.293,330.406 250.016,337.129 258.305,337.129L366.477,337.129C374.77,337.129 381.492,330.406 381.492,322.117C381.492,313.824 374.77,307.102 366.477,307.102Z" style="fill:rgb(255,241,0);fill-rule:nonzero;"/>
</svg>
