<?xml version="1.0" encoding="UTF-8" standalone="no"?>
<!DOCTYPE svg PUBLIC "-//W3C//DTD SVG 1.1//EN" "http://www.w3.org/Graphics/SVG/1.1/DTD/svg11.dtd">
<svg width="100%" height="100%" viewBox="0 0 512 512" version="1.1" xmlns="http://www.w3.org/2000/svg" xmlns:xlink="http://www.w3.org/1999/xlink" xml:space="preserve" xmlns:serif="http://www.serif.com/" style="fill-rule:evenodd;clip-rule:evenodd;stroke-linejoin:round;stroke-miterlimit:1.41421;">
    <g>
        <path d="M475.807,414.387C479.276,407.746 481.25,400.205 481.25,392.207L481.25,373.124C481.25,352.368 468.028,334.644 449.566,327.924C445.847,307.453 434.042,289.547 416.754,277.99C420.22,271.35 422.192,263.812 422.192,255.818L422.192,236.734C422.192,210.223 400.623,188.653 374.111,188.653C347.599,188.653 326.03,210.223 326.03,236.734L326.03,255.818C326.03,263.813 328.003,271.351 331.47,277.992C325.234,282.162 319.714,287.164 315.024,292.812C310.306,287.113 304.793,282.139 298.634,278.008C302.106,271.363 304.081,263.819 304.081,255.818L304.081,236.734C304.081,210.223 282.512,188.653 256,188.653C229.488,188.653 207.919,210.223 207.919,236.734L207.919,255.818C207.919,263.819 209.894,271.364 213.367,278.008C207.173,282.162 201.635,287.173 196.897,292.913C192.2,287.224 186.694,282.183 180.519,278.014C183.993,271.368 185.971,263.821 185.971,255.818L185.971,236.734C185.971,210.223 164.401,188.653 137.889,188.653C111.377,188.653 89.808,210.223 89.808,236.734L89.808,255.818C89.808,263.813 91.78,271.351 95.247,277.992C77.973,289.544 66.156,307.454 62.434,327.925C43.972,334.644 30.751,352.368 30.751,373.124L30.751,392.207C30.751,400.204 32.725,407.746 36.194,414.387C14.968,428.566 2.127,452.174 2.127,478.077L2.127,502.084C2.127,507.561 6.567,512.001 12.044,512.001L499.958,512.001C505.434,512.001 509.875,507.561 509.875,502.084L509.875,478.077C509.874,452.174 497.034,428.565 475.807,414.387ZM461.417,373.124L461.417,392.207C461.417,407.782 448.745,420.454 433.17,420.454C417.594,420.454 404.922,407.782 404.922,392.207L404.922,373.124C404.922,357.547 417.594,344.876 433.17,344.876C448.745,344.876 461.417,357.548 461.417,373.124ZM428.527,325.271C404.185,327.614 385.087,348.178 385.087,373.124L385.087,392.207C385.087,400.209 387.064,407.754 390.537,414.399C384.389,418.524 378.884,423.501 374.166,429.193C369.482,423.557 363.95,418.566 357.695,414.387C361.164,407.746 363.137,400.204 363.137,392.207L363.137,373.124C363.137,348.179 344.04,327.615 319.699,325.271C323.719,312.205 332.465,300.743 344.181,293.407C352.401,299.965 362.802,303.899 374.111,303.899C385.42,303.899 395.82,299.965 404.041,293.407C415.765,300.746 424.508,312.203 428.527,325.271ZM286.808,392.207L286.808,373.124C286.808,357.548 299.48,344.876 315.055,344.876C330.631,344.876 343.303,357.548 343.303,373.124L343.303,392.207C343.303,407.782 330.631,420.454 315.055,420.454C299.48,420.454 286.808,407.782 286.808,392.207ZM345.864,236.734C345.864,221.158 358.536,208.487 374.111,208.487C389.687,208.487 402.359,221.159 402.359,236.734L402.359,255.818C402.359,271.393 389.687,284.065 374.111,284.065C358.536,284.065 345.864,271.393 345.864,255.818L345.864,236.734ZM227.752,236.734C227.752,221.158 240.424,208.487 255.999,208.487C271.575,208.487 284.246,221.159 284.246,236.734L284.246,255.818C284.246,271.393 271.575,284.065 255.999,284.065C240.423,284.065 227.751,271.393 227.751,255.818L227.751,236.734L227.752,236.734ZM226.071,293.407C234.291,299.965 244.692,303.899 256,303.899C267.308,303.899 277.709,299.965 285.928,293.408C293.119,297.883 299.201,303.868 303.806,311.011C301.464,316.378 299.726,322.046 298.657,327.925C280.194,334.644 266.974,352.369 266.974,373.124L266.974,392.207C266.974,400.204 268.948,407.745 272.416,414.386C266.164,418.562 260.633,423.55 255.951,429.181C251.236,423.491 245.73,418.523 239.578,414.397C243.051,407.752 245.026,400.208 245.026,392.206L245.026,373.124C245.026,352.363 231.799,334.636 213.331,327.92C212.255,322.111 210.499,316.47 208.133,311.107C212.745,303.92 218.85,297.901 226.071,293.407ZM168.696,392.207L168.696,373.124C168.696,357.547 181.367,344.876 196.944,344.876C212.52,344.876 225.192,357.548 225.192,373.124L225.192,392.207C225.192,407.782 212.52,420.454 196.944,420.454C181.367,420.454 168.696,407.782 168.696,392.207ZM109.639,236.734C109.639,221.158 122.311,208.487 137.887,208.487C153.463,208.487 166.135,221.159 166.135,236.734L166.135,255.818C166.135,271.393 153.463,284.065 137.888,284.065C122.311,284.065 109.639,271.393 109.639,255.818L109.639,236.734ZM107.957,293.407C116.178,299.965 126.578,303.899 137.888,303.899C149.196,303.899 159.598,299.965 167.817,293.407C179.544,300.746 188.283,312.202 192.302,325.271C167.96,327.614 148.862,348.178 148.862,373.124L148.862,392.207C148.862,400.204 150.835,407.746 154.304,414.387C148.053,418.562 142.525,423.548 137.843,429.177C133.129,423.487 127.62,418.523 121.465,414.397C124.937,407.752 126.913,400.209 126.913,392.207L126.913,373.124C126.913,348.179 107.816,327.615 83.475,325.271C87.496,312.205 96.242,300.743 107.957,293.407ZM50.584,373.124C50.584,357.547 63.256,344.876 78.832,344.876C94.408,344.876 107.08,357.548 107.08,373.124L107.08,392.207C107.08,407.782 94.408,420.454 78.832,420.454C63.256,420.454 50.584,407.782 50.584,392.207L50.584,373.124ZM21.96,478.077C21.96,458.223 32.159,440.176 48.897,429.793C57.117,436.353 67.521,440.289 78.831,440.289C90.14,440.289 100.541,436.355 108.761,429.797C115.946,434.268 122.021,440.24 126.622,447.374C122.478,456.866 120.239,467.271 120.239,478.077L120.239,492.167L21.96,492.167L21.96,478.077ZM140.072,478.077C140.072,458.223 150.27,440.176 167.009,429.793C175.229,436.353 185.633,440.289 196.943,440.289C208.251,440.289 218.652,436.355 226.872,429.798C234.053,434.267 240.129,440.243 244.732,447.378C240.589,456.869 238.35,467.273 238.35,478.078L238.35,492.168L140.071,492.168L140.071,478.077L140.072,478.077ZM258.185,478.077C258.185,458.223 268.382,440.176 285.121,429.793C293.341,436.353 303.745,440.289 315.055,440.289C326.365,440.289 336.769,436.354 344.989,429.793C361.727,440.177 371.928,458.23 371.928,478.077L371.928,492.167L258.185,492.167L258.185,478.077ZM490.04,492.166L391.761,492.166L391.761,478.076C391.761,467.275 389.522,456.871 385.378,447.379C389.983,440.245 396.066,434.263 403.239,429.796C411.458,436.354 421.859,440.287 433.168,440.287C444.478,440.287 454.882,436.352 463.102,429.791C479.841,440.174 490.039,458.221 490.039,478.075L490.039,492.166L490.04,492.166Z" style="fill:rgb(144,23,3);fill-rule:nonzero;"/>
        <path d="M175.915,84.305C181.066,82.444 183.735,76.76 181.874,71.609C175.638,54.342 177.89,40.68 188.76,29.845C202.169,16.478 223.988,16.478 237.398,29.845C247.828,40.242 264.171,40.243 274.601,29.845C288.012,16.478 309.83,16.478 323.24,29.845C332.974,39.549 335.78,51.472 331.814,66.295C321.877,103.438 275.787,141.368 256.008,148.849C250.348,146.691 242.454,141.974 234.215,135.78C229.836,132.488 223.618,133.37 220.329,137.748C217.037,142.126 217.918,148.343 222.296,151.633C234.133,160.532 245.194,166.646 253.441,168.848C254.279,169.072 255.14,169.184 256.001,169.184C256.862,169.184 257.722,169.072 258.561,168.848C271.76,165.323 291.855,151.813 309.756,134.43C322.049,122.493 343.749,98.434 350.975,71.42C356.77,49.761 352.021,30.527 337.242,15.798C316.112,-5.267 281.729,-5.267 260.6,15.798C257.581,18.806 253.686,18.076 251.402,15.798C230.27,-5.266 195.889,-5.264 174.759,15.798C158.342,32.162 154.352,53.79 163.219,78.345C165.08,83.496 170.763,86.162 175.915,84.305Z" style="fill:rgb(144,23,3);fill-rule:nonzero;"/>
        <path d="M195.818,103.141C190.341,103.141 185.905,107.581 185.905,113.058C185.905,118.535 190.348,122.975 195.825,122.975C201.302,122.975 205.742,118.535 205.742,113.058C205.742,107.581 201.302,103.141 195.825,103.141L195.818,103.141Z" style="fill:rgb(144,23,3);fill-rule:nonzero;"/>
    </g>
</svg>
