<?xml version="1.0" encoding="UTF-8" standalone="no"?>
<!DOCTYPE svg PUBLIC "-//W3C//DTD SVG 1.1//EN" "http://www.w3.org/Graphics/SVG/1.1/DTD/svg11.dtd">
<svg width="100%" height="100%" viewBox="0 0 512 512" version="1.1" xmlns="http://www.w3.org/2000/svg" xmlns:xlink="http://www.w3.org/1999/xlink" xml:space="preserve" xmlns:serif="http://www.serif.com/" style="fill-rule:evenodd;clip-rule:evenodd;stroke-linecap:round;stroke-linejoin:round;stroke-miterlimit:1.5;">
    <g transform="matrix(4.03542,0,0,4.01027,-222.827,-142.952)">
        <path d="M61.518,71.167L95.167,70.833L108.833,87.167" style="fill:none;stroke:black;stroke-width:4.97px;"/>
    </g>
    <g transform="matrix(4.03542,0,0,4.01027,-222.827,-142.952)">
        <path d="M127.833,110.833L141.833,127.167L170.143,127.5" style="fill:none;stroke:black;stroke-width:4.97px;"/>
    </g>
    <g transform="matrix(4.03542,0,0,4.01027,-225.446,-142.952)">
        <path d="M158.167,111.833L173.833,128.167L158.5,143.167" style="fill:none;stroke:black;stroke-width:4.97px;"/>
    </g>
    <g transform="matrix(4.03542,0,0,4.01027,-222.827,-142.952)">
        <path d="M158.167,55.833L173.167,71.167L157.5,86.833" style="fill:none;stroke:black;stroke-width:4.97px;"/>
    </g>
    <g transform="matrix(4.03542,0,0,4.01027,-222.827,-142.952)">
        <path d="M61.833,127.5L95.833,127.167L142.167,71.167L169.196,71.26" style="fill:none;stroke:black;stroke-width:4.97px;"/>
    </g>
</svg>
