<?xml version="1.0" encoding="UTF-8" standalone="no"?>
<!DOCTYPE svg PUBLIC "-//W3C//DTD SVG 1.1//EN" "http://www.w3.org/Graphics/SVG/1.1/DTD/svg11.dtd">
<svg width="100%" height="100%" viewBox="0 0 512 512" version="1.1" xmlns="http://www.w3.org/2000/svg" xmlns:xlink="http://www.w3.org/1999/xlink" xml:space="preserve" xmlns:serif="http://www.serif.com/" style="fill-rule:evenodd;clip-rule:evenodd;stroke-linejoin:round;stroke-miterlimit:1.41421;">
    <g transform="matrix(0.870678,0,0,0.870678,50,51.0003)">
        <path d="M239.446,0.022C230.852,0.022 222.264,0.484 213.719,1.405C205.887,2.205 198.151,3.517 190.519,5.109C189.042,5.418 187.564,5.744 186.087,6.085C141.12,16.323 100.06,39.314 67.831,72.301C64.834,75.373 61.9,78.536 59.031,81.789C-28.029,181.737 -17.581,333.337 82.368,420.397C178.056,503.746 322.091,498.2 411.087,407.741C414.09,404.669 417.023,401.506 419.887,398.253C458.308,354.499 479.481,298.25 479.447,240.021C479.447,107.472 371.995,0.021 239.446,0.022ZM78.495,84.301C79.759,82.989 81.071,81.733 82.359,80.461C83.847,78.997 85.327,77.525 86.847,76.109C88.183,74.861 89.559,73.661 90.927,72.445C92.471,71.077 94.007,69.709 95.591,68.389C96.983,67.213 98.415,66.085 99.839,64.949C101.439,63.669 103.039,62.389 104.687,61.157C106.143,60.061 107.623,58.997 109.111,57.957C110.767,56.773 112.431,55.557 114.119,54.453C115.631,53.429 117.159,52.437 118.695,51.453C120.407,50.357 122.127,49.277 123.863,48.253C125.426,47.32 126.999,46.402 128.583,45.501C130.354,44.493 132.132,43.509 133.919,42.549C135.519,41.696 137.119,40.861 138.719,40.045C140.543,39.125 142.383,38.237 144.231,37.365C145.831,36.605 147.495,35.845 149.143,35.125C151.023,34.325 152.927,33.525 154.831,32.725C156.487,32.045 158.135,31.381 159.807,30.741C161.743,30.005 163.703,29.317 165.663,28.629C167.335,28.045 169.007,27.461 170.703,26.909C172.695,26.269 174.703,25.677 176.719,25.093C178.407,24.605 180.079,24.101 181.775,23.645C182.423,23.477 183.071,23.341 183.719,23.173C160.039,46.166 142.466,74.702 132.591,106.197C113.603,101.189 95.221,94.115 77.775,85.101C78.039,84.821 78.263,84.541 78.495,84.301ZM66.991,97.181C86.208,107.593 106.586,115.703 127.703,121.341C117.351,157.337 111.917,194.568 111.551,232.021L15.631,232.021C17.374,182.632 35.435,135.214 66.991,97.181ZM66.991,382.861C35.437,344.827 17.376,297.409 15.631,248.021L111.551,248.021C111.917,285.474 117.35,322.705 127.703,358.701C106.587,364.341 86.209,372.45 66.991,382.861ZM181.727,456.429C180.111,456.021 178.439,455.493 176.775,455.005C174.751,454.413 172.719,453.821 170.719,453.173C169.031,452.629 167.367,452.045 165.703,451.461C163.735,450.781 161.767,450.085 159.823,449.341C158.159,448.709 156.519,448.045 154.871,447.373C152.959,446.573 151.047,445.773 149.151,444.973C147.519,444.253 145.895,443.512 144.279,442.749C142.415,441.869 140.559,440.973 138.679,440.045C137.079,439.245 135.479,438.445 133.879,437.573C132.071,436.605 130.279,435.613 128.487,434.589C126.887,433.701 125.367,432.789 123.823,431.861C122.063,430.805 120.335,429.717 118.607,428.605C117.087,427.637 115.567,426.653 114.071,425.645C112.367,424.493 110.679,423.293 109.007,422.093C107.543,421.045 106.079,419.997 104.639,418.893C102.983,417.645 101.359,416.357 99.743,415.061C98.327,413.933 96.919,412.813 95.535,411.653C93.935,410.325 92.391,408.941 90.839,407.565C89.479,406.357 88.111,405.165 86.783,403.933C85.255,402.509 83.775,401.029 82.287,399.565C80.999,398.293 79.687,397.037 78.423,395.733C78.191,395.485 77.967,395.229 77.735,394.989C95.18,385.971 113.562,378.894 132.551,373.885C142.428,405.379 160,433.914 183.679,456.909C183.031,456.741 182.375,456.605 181.727,456.429ZM231.447,463.389C197.215,458.525 167.207,422.797 148.327,370.037C175.623,363.925 203.478,360.646 231.447,360.253L231.447,463.389ZM231.447,344.253C201.777,344.643 172.232,348.167 143.303,354.765C133.258,320.058 127.959,284.15 127.551,248.021L231.447,248.021L231.447,344.253ZM231.447,232.021L127.551,232.021C127.958,195.892 133.257,159.984 143.303,125.277C172.232,131.874 201.778,135.398 231.447,135.789L231.447,232.021ZM231.447,119.789C203.477,119.399 175.623,116.12 148.327,110.005C167.207,57.245 197.215,21.517 231.447,16.653L231.447,119.789ZM411.903,97.181C443.457,135.215 461.518,182.633 463.263,232.021L367.343,232.021C366.977,194.568 361.544,157.337 351.191,121.341C372.307,115.7 392.685,107.591 411.903,97.181ZM297.103,23.605C298.783,24.021 300.455,24.549 302.119,25.037C304.143,25.629 306.175,26.221 308.175,26.869C309.863,27.413 311.527,27.997 313.191,28.581C315.159,29.261 317.127,29.957 319.071,30.701C320.735,31.333 322.375,31.997 324.023,32.669C325.935,33.469 327.847,34.269 329.743,35.069C331.375,35.789 332.999,36.53 334.615,37.293C336.479,38.173 338.335,39.069 340.215,39.997C341.815,40.797 343.415,41.597 345.015,42.469C346.823,43.437 348.615,44.429 350.407,45.453C352.007,46.341 353.527,47.253 355.071,48.181C356.831,49.237 358.559,50.325 360.287,51.437C361.807,52.405 363.327,53.389 364.823,54.397C366.527,55.549 368.207,56.741 369.879,57.941C371.351,58.989 372.815,60.045 374.263,61.141C375.911,62.381 377.527,63.669 379.151,64.965C380.559,66.085 381.975,67.205 383.359,68.373C384.959,69.701 386.503,71.085 388.055,72.461C389.415,73.669 390.783,74.861 392.111,76.093C393.639,77.517 395.119,78.997 396.607,80.461C397.895,81.733 399.207,82.989 400.471,84.293C400.703,84.541 400.927,84.797 401.159,85.037C383.714,94.055 365.332,101.132 346.343,106.141C336.447,74.643 318.852,46.11 295.151,23.125C295.799,23.293 296.455,23.429 297.103,23.605ZM247.447,16.653C281.679,21.517 311.687,57.245 330.567,110.005C303.271,116.117 275.416,119.396 247.447,119.789L247.447,16.653ZM247.447,135.789C277.117,135.399 306.662,131.875 335.591,125.277C345.636,159.984 350.935,195.892 351.343,232.021L247.447,232.021L247.447,135.789ZM247.447,248.021L351.343,248.021C350.936,284.15 345.637,320.058 335.591,354.765C306.662,348.168 277.117,344.644 247.447,344.253L247.447,248.021ZM247.447,463.389L247.447,360.253C275.417,360.643 303.271,363.922 330.567,370.037C311.687,422.797 281.679,458.525 247.447,463.389ZM400.399,395.741C399.135,397.045 397.831,398.301 396.543,399.573C395.055,401.037 393.567,402.517 392.039,403.941C390.711,405.181 389.343,406.341 387.983,407.581C386.431,408.957 384.887,410.333 383.303,411.661C381.903,412.829 380.479,413.957 379.055,415.093C377.455,416.373 375.855,417.653 374.207,418.885C372.751,419.981 371.271,421.045 369.783,422.085C368.127,423.269 366.463,424.485 364.775,425.589C363.263,426.613 361.735,427.605 360.199,428.581C358.487,429.685 356.762,430.752 355.023,431.781C353.423,432.717 351.895,433.629 350.319,434.533C348.548,435.541 346.767,436.525 344.975,437.485C343.375,438.338 341.775,439.173 340.175,439.989C338.351,440.909 336.511,441.797 334.663,442.669C333.063,443.429 331.399,444.189 329.751,444.909C327.871,445.709 325.967,446.509 324.063,447.309C322.407,447.981 320.759,448.653 319.095,449.285C317.143,450.029 315.183,450.725 313.215,451.405C311.551,451.989 309.887,452.573 308.199,453.117C306.199,453.765 304.199,454.357 302.159,454.941C300.487,455.437 298.807,455.933 297.119,456.389C296.471,456.557 295.823,456.693 295.175,456.861C318.855,433.868 336.428,405.332 346.303,373.837C365.291,378.845 383.673,385.919 401.119,394.933C400.855,395.221 400.631,395.501 400.399,395.741ZM411.903,382.861C392.686,372.449 372.308,364.339 351.191,358.701C361.543,322.705 366.977,285.474 367.343,248.021L463.263,248.021C461.521,297.409 443.459,344.828 411.903,382.861Z" style="fill:white;fill-rule:nonzero;"/>
    </g>
    <g transform="matrix(0.870678,0,0,0.870678,57.4823,52.0692)">
        <path d="M239.446,0.022C230.852,0.022 222.264,0.484 213.719,1.405C205.887,2.205 198.151,3.517 190.519,5.109C189.042,5.418 187.564,5.744 186.087,6.085C141.12,16.323 100.06,39.314 67.831,72.301C64.834,75.373 61.9,78.536 59.031,81.789C-28.029,181.737 -17.581,333.337 82.368,420.397C178.056,503.746 322.091,498.2 411.087,407.741C414.09,404.669 417.023,401.506 419.887,398.253C458.308,354.499 479.481,298.25 479.447,240.021C479.447,107.472 371.995,0.021 239.446,0.022ZM78.495,84.301C79.759,82.989 81.071,81.733 82.359,80.461C83.847,78.997 85.327,77.525 86.847,76.109C88.183,74.861 89.559,73.661 90.927,72.445C92.471,71.077 94.007,69.709 95.591,68.389C96.983,67.213 98.415,66.085 99.839,64.949C101.439,63.669 103.039,62.389 104.687,61.157C106.143,60.061 107.623,58.997 109.111,57.957C110.767,56.773 112.431,55.557 114.119,54.453C115.631,53.429 117.159,52.437 118.695,51.453C120.407,50.357 122.127,49.277 123.863,48.253C125.426,47.32 126.999,46.402 128.583,45.501C130.354,44.493 132.132,43.509 133.919,42.549C135.519,41.696 137.119,40.861 138.719,40.045C140.543,39.125 142.383,38.237 144.231,37.365C145.831,36.605 147.495,35.845 149.143,35.125C151.023,34.325 152.927,33.525 154.831,32.725C156.487,32.045 158.135,31.381 159.807,30.741C161.743,30.005 163.703,29.317 165.663,28.629C167.335,28.045 169.007,27.461 170.703,26.909C172.695,26.269 174.703,25.677 176.719,25.093C178.407,24.605 180.079,24.101 181.775,23.645C182.423,23.477 183.071,23.341 183.719,23.173C160.039,46.166 142.466,74.702 132.591,106.197C113.603,101.189 95.221,94.115 77.775,85.101C78.039,84.821 78.263,84.541 78.495,84.301ZM66.991,97.181C86.208,107.593 106.586,115.703 127.703,121.341C117.351,157.337 111.917,194.568 111.551,232.021L15.631,232.021C17.374,182.632 35.435,135.214 66.991,97.181ZM66.991,382.861C35.437,344.827 17.376,297.409 15.631,248.021L111.551,248.021C111.917,285.474 117.35,322.705 127.703,358.701C106.587,364.341 86.209,372.45 66.991,382.861ZM181.727,456.429C180.111,456.021 178.439,455.493 176.775,455.005C174.751,454.413 172.719,453.821 170.719,453.173C169.031,452.629 167.367,452.045 165.703,451.461C163.735,450.781 161.767,450.085 159.823,449.341C158.159,448.709 156.519,448.045 154.871,447.373C152.959,446.573 151.047,445.773 149.151,444.973C147.519,444.253 145.895,443.512 144.279,442.749C142.415,441.869 140.559,440.973 138.679,440.045C137.079,439.245 135.479,438.445 133.879,437.573C132.071,436.605 130.279,435.613 128.487,434.589C126.887,433.701 125.367,432.789 123.823,431.861C122.063,430.805 120.335,429.717 118.607,428.605C117.087,427.637 115.567,426.653 114.071,425.645C112.367,424.493 110.679,423.293 109.007,422.093C107.543,421.045 106.079,419.997 104.639,418.893C102.983,417.645 101.359,416.357 99.743,415.061C98.327,413.933 96.919,412.813 95.535,411.653C93.935,410.325 92.391,408.941 90.839,407.565C89.479,406.357 88.111,405.165 86.783,403.933C85.255,402.509 83.775,401.029 82.287,399.565C80.999,398.293 79.687,397.037 78.423,395.733C78.191,395.485 77.967,395.229 77.735,394.989C95.18,385.971 113.562,378.894 132.551,373.885C142.428,405.379 160,433.914 183.679,456.909C183.031,456.741 182.375,456.605 181.727,456.429ZM231.447,463.389C197.215,458.525 167.207,422.797 148.327,370.037C175.623,363.925 203.478,360.646 231.447,360.253L231.447,463.389ZM231.447,344.253C201.777,344.643 172.232,348.167 143.303,354.765C133.258,320.058 127.959,284.15 127.551,248.021L231.447,248.021L231.447,344.253ZM231.447,232.021L127.551,232.021C127.958,195.892 133.257,159.984 143.303,125.277C172.232,131.874 201.778,135.398 231.447,135.789L231.447,232.021ZM231.447,119.789C203.477,119.399 175.623,116.12 148.327,110.005C167.207,57.245 197.215,21.517 231.447,16.653L231.447,119.789ZM411.903,97.181C443.457,135.215 461.518,182.633 463.263,232.021L367.343,232.021C366.977,194.568 361.544,157.337 351.191,121.341C372.307,115.7 392.685,107.591 411.903,97.181ZM297.103,23.605C298.783,24.021 300.455,24.549 302.119,25.037C304.143,25.629 306.175,26.221 308.175,26.869C309.863,27.413 311.527,27.997 313.191,28.581C315.159,29.261 317.127,29.957 319.071,30.701C320.735,31.333 322.375,31.997 324.023,32.669C325.935,33.469 327.847,34.269 329.743,35.069C331.375,35.789 332.999,36.53 334.615,37.293C336.479,38.173 338.335,39.069 340.215,39.997C341.815,40.797 343.415,41.597 345.015,42.469C346.823,43.437 348.615,44.429 350.407,45.453C352.007,46.341 353.527,47.253 355.071,48.181C356.831,49.237 358.559,50.325 360.287,51.437C361.807,52.405 363.327,53.389 364.823,54.397C366.527,55.549 368.207,56.741 369.879,57.941C371.351,58.989 372.815,60.045 374.263,61.141C375.911,62.381 377.527,63.669 379.151,64.965C380.559,66.085 381.975,67.205 383.359,68.373C384.959,69.701 386.503,71.085 388.055,72.461C389.415,73.669 390.783,74.861 392.111,76.093C393.639,77.517 395.119,78.997 396.607,80.461C397.895,81.733 399.207,82.989 400.471,84.293C400.703,84.541 400.927,84.797 401.159,85.037C383.714,94.055 365.332,101.132 346.343,106.141C336.447,74.643 318.852,46.11 295.151,23.125C295.799,23.293 296.455,23.429 297.103,23.605ZM247.447,16.653C281.679,21.517 311.687,57.245 330.567,110.005C303.271,116.117 275.416,119.396 247.447,119.789L247.447,16.653ZM247.447,135.789C277.117,135.399 306.662,131.875 335.591,125.277C345.636,159.984 350.935,195.892 351.343,232.021L247.447,232.021L247.447,135.789ZM247.447,248.021L351.343,248.021C350.936,284.15 345.637,320.058 335.591,354.765C306.662,348.168 277.117,344.644 247.447,344.253L247.447,248.021ZM247.447,463.389L247.447,360.253C275.417,360.643 303.271,363.922 330.567,370.037C311.687,422.797 281.679,458.525 247.447,463.389ZM400.399,395.741C399.135,397.045 397.831,398.301 396.543,399.573C395.055,401.037 393.567,402.517 392.039,403.941C390.711,405.181 389.343,406.341 387.983,407.581C386.431,408.957 384.887,410.333 383.303,411.661C381.903,412.829 380.479,413.957 379.055,415.093C377.455,416.373 375.855,417.653 374.207,418.885C372.751,419.981 371.271,421.045 369.783,422.085C368.127,423.269 366.463,424.485 364.775,425.589C363.263,426.613 361.735,427.605 360.199,428.581C358.487,429.685 356.762,430.752 355.023,431.781C353.423,432.717 351.895,433.629 350.319,434.533C348.548,435.541 346.767,436.525 344.975,437.485C343.375,438.338 341.775,439.173 340.175,439.989C338.351,440.909 336.511,441.797 334.663,442.669C333.063,443.429 331.399,444.189 329.751,444.909C327.871,445.709 325.967,446.509 324.063,447.309C322.407,447.981 320.759,448.653 319.095,449.285C317.143,450.029 315.183,450.725 313.215,451.405C311.551,451.989 309.887,452.573 308.199,453.117C306.199,453.765 304.199,454.357 302.159,454.941C300.487,455.437 298.807,455.933 297.119,456.389C296.471,456.557 295.823,456.693 295.175,456.861C318.855,433.868 336.428,405.332 346.303,373.837C365.291,378.845 383.673,385.919 401.119,394.933C400.855,395.221 400.631,395.501 400.399,395.741ZM411.903,382.861C392.686,372.449 372.308,364.339 351.191,358.701C361.543,322.705 366.977,285.474 367.343,248.021L463.263,248.021C461.521,297.409 443.459,344.828 411.903,382.861Z" style="fill:white;fill-rule:nonzero;"/>
    </g>
    <g transform="matrix(0.870678,0,0,0.870678,45.7244,49.9314)">
        <path d="M239.446,0.022C230.852,0.022 222.264,0.484 213.719,1.405C205.887,2.205 198.151,3.517 190.519,5.109C189.042,5.418 187.564,5.744 186.087,6.085C141.12,16.323 100.06,39.314 67.831,72.301C64.834,75.373 61.9,78.536 59.031,81.789C-28.029,181.737 -17.581,333.337 82.368,420.397C178.056,503.746 322.091,498.2 411.087,407.741C414.09,404.669 417.023,401.506 419.887,398.253C458.308,354.499 479.481,298.25 479.447,240.021C479.447,107.472 371.995,0.021 239.446,0.022ZM78.495,84.301C79.759,82.989 81.071,81.733 82.359,80.461C83.847,78.997 85.327,77.525 86.847,76.109C88.183,74.861 89.559,73.661 90.927,72.445C92.471,71.077 94.007,69.709 95.591,68.389C96.983,67.213 98.415,66.085 99.839,64.949C101.439,63.669 103.039,62.389 104.687,61.157C106.143,60.061 107.623,58.997 109.111,57.957C110.767,56.773 112.431,55.557 114.119,54.453C115.631,53.429 117.159,52.437 118.695,51.453C120.407,50.357 122.127,49.277 123.863,48.253C125.426,47.32 126.999,46.402 128.583,45.501C130.354,44.493 132.132,43.509 133.919,42.549C135.519,41.696 137.119,40.861 138.719,40.045C140.543,39.125 142.383,38.237 144.231,37.365C145.831,36.605 147.495,35.845 149.143,35.125C151.023,34.325 152.927,33.525 154.831,32.725C156.487,32.045 158.135,31.381 159.807,30.741C161.743,30.005 163.703,29.317 165.663,28.629C167.335,28.045 169.007,27.461 170.703,26.909C172.695,26.269 174.703,25.677 176.719,25.093C178.407,24.605 180.079,24.101 181.775,23.645C182.423,23.477 183.071,23.341 183.719,23.173C160.039,46.166 142.466,74.702 132.591,106.197C113.603,101.189 95.221,94.115 77.775,85.101C78.039,84.821 78.263,84.541 78.495,84.301ZM66.991,97.181C86.208,107.593 106.586,115.703 127.703,121.341C117.351,157.337 111.917,194.568 111.551,232.021L15.631,232.021C17.374,182.632 35.435,135.214 66.991,97.181ZM66.991,382.861C35.437,344.827 17.376,297.409 15.631,248.021L111.551,248.021C111.917,285.474 117.35,322.705 127.703,358.701C106.587,364.341 86.209,372.45 66.991,382.861ZM181.727,456.429C180.111,456.021 178.439,455.493 176.775,455.005C174.751,454.413 172.719,453.821 170.719,453.173C169.031,452.629 167.367,452.045 165.703,451.461C163.735,450.781 161.767,450.085 159.823,449.341C158.159,448.709 156.519,448.045 154.871,447.373C152.959,446.573 151.047,445.773 149.151,444.973C147.519,444.253 145.895,443.512 144.279,442.749C142.415,441.869 140.559,440.973 138.679,440.045C137.079,439.245 135.479,438.445 133.879,437.573C132.071,436.605 130.279,435.613 128.487,434.589C126.887,433.701 125.367,432.789 123.823,431.861C122.063,430.805 120.335,429.717 118.607,428.605C117.087,427.637 115.567,426.653 114.071,425.645C112.367,424.493 110.679,423.293 109.007,422.093C107.543,421.045 106.079,419.997 104.639,418.893C102.983,417.645 101.359,416.357 99.743,415.061C98.327,413.933 96.919,412.813 95.535,411.653C93.935,410.325 92.391,408.941 90.839,407.565C89.479,406.357 88.111,405.165 86.783,403.933C85.255,402.509 83.775,401.029 82.287,399.565C80.999,398.293 79.687,397.037 78.423,395.733C78.191,395.485 77.967,395.229 77.735,394.989C95.18,385.971 113.562,378.894 132.551,373.885C142.428,405.379 160,433.914 183.679,456.909C183.031,456.741 182.375,456.605 181.727,456.429ZM231.447,463.389C197.215,458.525 167.207,422.797 148.327,370.037C175.623,363.925 203.478,360.646 231.447,360.253L231.447,463.389ZM231.447,344.253C201.777,344.643 172.232,348.167 143.303,354.765C133.258,320.058 127.959,284.15 127.551,248.021L231.447,248.021L231.447,344.253ZM231.447,232.021L127.551,232.021C127.958,195.892 133.257,159.984 143.303,125.277C172.232,131.874 201.778,135.398 231.447,135.789L231.447,232.021ZM231.447,119.789C203.477,119.399 175.623,116.12 148.327,110.005C167.207,57.245 197.215,21.517 231.447,16.653L231.447,119.789ZM411.903,97.181C443.457,135.215 461.518,182.633 463.263,232.021L367.343,232.021C366.977,194.568 361.544,157.337 351.191,121.341C372.307,115.7 392.685,107.591 411.903,97.181ZM297.103,23.605C298.783,24.021 300.455,24.549 302.119,25.037C304.143,25.629 306.175,26.221 308.175,26.869C309.863,27.413 311.527,27.997 313.191,28.581C315.159,29.261 317.127,29.957 319.071,30.701C320.735,31.333 322.375,31.997 324.023,32.669C325.935,33.469 327.847,34.269 329.743,35.069C331.375,35.789 332.999,36.53 334.615,37.293C336.479,38.173 338.335,39.069 340.215,39.997C341.815,40.797 343.415,41.597 345.015,42.469C346.823,43.437 348.615,44.429 350.407,45.453C352.007,46.341 353.527,47.253 355.071,48.181C356.831,49.237 358.559,50.325 360.287,51.437C361.807,52.405 363.327,53.389 364.823,54.397C366.527,55.549 368.207,56.741 369.879,57.941C371.351,58.989 372.815,60.045 374.263,61.141C375.911,62.381 377.527,63.669 379.151,64.965C380.559,66.085 381.975,67.205 383.359,68.373C384.959,69.701 386.503,71.085 388.055,72.461C389.415,73.669 390.783,74.861 392.111,76.093C393.639,77.517 395.119,78.997 396.607,80.461C397.895,81.733 399.207,82.989 400.471,84.293C400.703,84.541 400.927,84.797 401.159,85.037C383.714,94.055 365.332,101.132 346.343,106.141C336.447,74.643 318.852,46.11 295.151,23.125C295.799,23.293 296.455,23.429 297.103,23.605ZM247.447,16.653C281.679,21.517 311.687,57.245 330.567,110.005C303.271,116.117 275.416,119.396 247.447,119.789L247.447,16.653ZM247.447,135.789C277.117,135.399 306.662,131.875 335.591,125.277C345.636,159.984 350.935,195.892 351.343,232.021L247.447,232.021L247.447,135.789ZM247.447,248.021L351.343,248.021C350.936,284.15 345.637,320.058 335.591,354.765C306.662,348.168 277.117,344.644 247.447,344.253L247.447,248.021ZM247.447,463.389L247.447,360.253C275.417,360.643 303.271,363.922 330.567,370.037C311.687,422.797 281.679,458.525 247.447,463.389ZM400.399,395.741C399.135,397.045 397.831,398.301 396.543,399.573C395.055,401.037 393.567,402.517 392.039,403.941C390.711,405.181 389.343,406.341 387.983,407.581C386.431,408.957 384.887,410.333 383.303,411.661C381.903,412.829 380.479,413.957 379.055,415.093C377.455,416.373 375.855,417.653 374.207,418.885C372.751,419.981 371.271,421.045 369.783,422.085C368.127,423.269 366.463,424.485 364.775,425.589C363.263,426.613 361.735,427.605 360.199,428.581C358.487,429.685 356.762,430.752 355.023,431.781C353.423,432.717 351.895,433.629 350.319,434.533C348.548,435.541 346.767,436.525 344.975,437.485C343.375,438.338 341.775,439.173 340.175,439.989C338.351,440.909 336.511,441.797 334.663,442.669C333.063,443.429 331.399,444.189 329.751,444.909C327.871,445.709 325.967,446.509 324.063,447.309C322.407,447.981 320.759,448.653 319.095,449.285C317.143,450.029 315.183,450.725 313.215,451.405C311.551,451.989 309.887,452.573 308.199,453.117C306.199,453.765 304.199,454.357 302.159,454.941C300.487,455.437 298.807,455.933 297.119,456.389C296.471,456.557 295.823,456.693 295.175,456.861C318.855,433.868 336.428,405.332 346.303,373.837C365.291,378.845 383.673,385.919 401.119,394.933C400.855,395.221 400.631,395.501 400.399,395.741ZM411.903,382.861C392.686,372.449 372.308,364.339 351.191,358.701C361.543,322.705 366.977,285.474 367.343,248.021L463.263,248.021C461.521,297.409 443.459,344.828 411.903,382.861Z" style="fill:white;fill-rule:nonzero;"/>
    </g>
</svg>
