<?xml version="1.0" encoding="UTF-8" standalone="no"?>
<!DOCTYPE svg PUBLIC "-//W3C//DTD SVG 1.1//EN" "http://www.w3.org/Graphics/SVG/1.1/DTD/svg11.dtd">
<svg width="100%" height="100%" viewBox="0 0 512 512" version="1.1" xmlns="http://www.w3.org/2000/svg" xmlns:xlink="http://www.w3.org/1999/xlink" xml:space="preserve" xmlns:serif="http://www.serif.com/" style="fill-rule:evenodd;clip-rule:evenodd;stroke-linejoin:round;stroke-miterlimit:1.41421;">
    <path d="M480,456L400,456C395.592,456 392,452.416 392,448C392,443.584 395.592,440 400,440L464,440C477.232,440 488,429.232 488,416C488,402.768 477.232,392 464,392L448,392C443.592,392 440,388.416 440,384C440,379.584 443.592,376 448,376L480,376C493.232,376 504,365.232 504,352C504,338.768 493.232,328 480,328L408,328L408,312C416.824,312 424,304.824 424,296L424,280C424,271.176 416.824,264 408,264L408,248C416.824,248 424,240.824 424,232L424,198.992C424,191.848 427.152,185.128 432.64,180.552L437.752,176.28C459.52,158.144 472,131.504 472,103.168C472,50.696 429.304,8 376.832,8L327.176,8C274.696,8 232,50.696 232,103.168C232,131.496 244.48,158.144 266.24,176.28L271.36,180.552C276.848,185.128 280,191.84 280,198.992L280,204.128C261.032,189.12 239.256,178.648 216,172.976L216,136L194.888,136C191.048,136 187.648,133.544 185.864,129.264C184.208,125.312 184.88,121.016 187.592,118.328L202.528,103.456L168.544,69.472L153.68,84.408C150.984,87.104 146.696,87.792 142.4,85.992C138.456,84.352 136,80.96 136,77.112L136,56L88,56L88,77.112C88,80.952 85.544,84.352 81.264,86.136C77.312,87.792 73.008,87.112 70.328,84.408L55.456,69.472L21.472,103.456L36.408,118.32C39.112,121.016 39.792,125.312 37.992,129.6C36.352,133.544 32.96,136 29.112,136L8,136L8,184L29.112,184C32.952,184 36.352,186.456 38.136,190.736C39.792,194.688 39.12,198.984 36.408,201.672L21.472,216.544L41.152,236.224C20.424,264.168 8,298.616 8,336C8,428.632 83.36,504 176,504C253.368,504 320.808,450.52 339.04,376L384,376C397.232,376 408,365.232 408,352L408,344L480,344C484.408,344 488,347.584 488,352C488,356.416 484.408,360 480,360L448,360C434.768,360 424,370.768 424,384C424,397.232 434.768,408 448,408L464,408C468.408,408 472,411.584 472,416C472,420.416 468.408,424 464,424L400,424C386.768,424 376,434.768 376,448C376,461.232 386.768,472 400,472L480,472C484.408,472 488,475.584 488,480C488,484.416 484.408,488 480,488L312,488L312,504L480,504C493.232,504 504,493.232 504,480C504,466.768 493.232,456 480,456ZM392,328L376,328L376,312L392,312L392,328ZM320,360C315.592,360 312,356.416 312,352L312,344L328,344L328,360L320,360ZM328,312L328,328L312,328L312,312L328,312ZM344,344L360,344L360,360L344,360L344,344ZM344,328L344,312L360,312L360,328L344,328ZM408.008,296L296,296L296,280L408,280L408.008,296ZM311.952,134.624C301.32,130.84 294.832,120.304 296.184,109.016C297.416,98.648 305.76,89.944 316.016,88.32C317.144,88.136 318.256,88.088 319.368,88.056C316.584,91.664 314.32,95.728 312.816,100.232L312.408,101.464L327.584,106.528L328,105.296C331.448,94.952 341.096,88 352,88C362.904,88 372.552,94.952 376,105.304L376.408,106.536L391.584,101.472L391.176,100.248C389.672,95.744 387.416,91.672 384.624,88.064C385.736,88.096 386.856,88.144 387.984,88.328C398.24,89.96 406.584,98.664 407.816,109.024C409.16,120.312 402.68,130.84 392.056,134.624C382.304,138.088 376,146.672 376,156.504L376,232L360,232L360,152L344,152L344,232.008L328,232.008L328,156.504C328,146.672 321.696,138.088 311.952,134.624ZM344,248L344,264L312,264L312,248L344,248ZM392,264L360,264L360,248L392,248L392,264ZM276.488,163.992C258.384,148.904 248,126.736 248,103.168C248,59.512 283.512,24 327.168,24L376.824,24C420.488,24 456,59.512 456,103.168C456,126.728 445.616,148.896 427.504,163.992L422.392,168.256C413.248,175.88 408,187.08 408,198.992L408,232L392,232L392,156.504C392,153.536 394.128,150.864 397.424,149.688C415.136,143.376 425.944,125.872 423.712,107.12C421.648,89.792 407.68,75.24 390.504,72.512C382.752,71.296 375.136,72.376 368.152,75.408C363.136,73.272 357.704,72 352,72C346.304,72 340.864,73.272 335.856,75.408C328.88,72.368 321.272,71.296 313.504,72.52C296.328,75.24 282.352,89.8 280.288,107.128C278.056,125.88 288.864,143.384 306.584,149.696C309.872,150.864 312,153.536 312,156.504L312,232.008L296,232.008L296,198.984C296,187.08 290.752,175.872 281.608,168.256L276.488,163.992ZM296,248L296,264C287.176,264 280,271.176 280,280L280,296C280,304.824 287.176,312 296,312L296,344L289.888,344C281.904,344 274.728,339.56 271.16,332.424C264.856,319.832 252.192,312 238.112,312L219.504,312C217.576,312 216,310.432 216,308.496C216,297.464 208.52,287.888 197.816,285.208L188.08,282.784C185.68,282.184 184,280.024 184,277.552C184,276.104 184.56,274.752 185.576,273.736L192.968,266.344C194.48,264.832 196.496,264 198.632,264L200.144,264C217.704,264 232,249.704 232,232.144C232,225.632 235.904,219.856 241.952,217.44L260.792,209.904C267.552,214.464 273.952,219.64 279.992,225.32L279.992,232C280,240.824 287.176,248 296,248ZM44.128,216.568L47.696,213.016C55.04,205.704 57.072,194.528 52.768,184.28C48.68,174.392 39.392,168 29.112,168L24,168L24,152L29.112,152C39.392,152 48.68,145.608 52.888,135.456C57.08,125.472 55.048,114.296 47.704,106.976L44.136,103.424L55.44,92.12L58.992,95.688C66.312,103.032 77.48,105.064 87.728,100.76C97.608,96.68 104,87.392 104,77.112L104,72L120,72L120,77.112C120,87.392 126.392,96.68 136.544,100.888C146.536,105.088 157.704,103.048 165.024,95.704L168.576,92.136L179.88,103.44L176.312,106.992C168.968,114.304 166.936,125.48 171.24,135.728C175.32,145.608 184.608,152 194.888,152L200,152L200,169.896C192.096,168.768 184.112,168 176,168C173.072,168 170.208,168.288 167.312,168.44C167.736,165.656 168,162.848 168,160C168,129.12 142.88,104 112,104C81.12,104 56,129.12 56,160C56,176.256 63.176,191.448 75.128,201.968C66.504,208.472 58.552,215.768 51.336,223.776L44.128,216.568ZM112,168C107.592,168 104,164.408 104,160C104,155.592 107.592,152 112,152C116.408,152 120,155.592 120,160C120,164.408 116.408,168 112,168ZM112,136C98.768,136 88,146.768 88,160C88,171.304 95.88,180.744 106.416,183.28C100.384,186.04 94.568,189.168 88.936,192.6C78.416,185.136 72,173.024 72,160C72,137.944 89.944,120 112,120C134.056,120 152,137.944 152,160C152,163.472 151.408,166.84 150.536,170.144C143.96,171.152 137.512,172.504 131.2,174.248C134.176,170.248 136,165.352 136,160C136,146.768 125.232,136 112,136ZM87.504,212.664L102,232C103.288,233.72 104,235.848 104,238C104,243.512 99.512,248 94,248L91.312,248C81.88,248 73.008,251.672 66.336,258.344C59.672,265.016 56,273.88 56,283.672C56,291.52 50.376,298.168 42.632,299.456L28,301.888C36.416,265.368 58,233.904 87.504,212.664ZM26.088,360L30.32,360C35.08,360 39.68,361.392 43.632,364.032L53.944,370.904C65.672,378.72 82.232,377.08 92.2,367.112L112.696,346.616C114.384,344.928 116.632,344 119.032,344C123.976,344 128,348.024 128,352.968C128,355.328 127.04,357.64 125.376,359.312L114.832,369.856C107.944,376.736 104,386.264 104,396C104,405.736 107.944,415.264 114.832,422.144C118.168,425.48 120,429.912 120,434.624C120,441.112 117.472,447.208 112.888,451.792L98.296,466.392C60.448,443.752 33.304,405.216 26.088,360ZM186.832,487.52L172.552,473.24C169.664,470.352 168,466.344 168,462.248C168,457.536 171.192,453.448 175.76,452.304C190.032,448.744 200,435.968 200,421.256L200,401.936C200,397.728 201.704,393.6 204.688,390.624L214.848,380.464C217.688,377.632 221.616,376 225.632,376C231.448,376 236.672,379.224 239.272,384.432L242.216,390.312C247.664,401.216 258.632,408 270.832,408L309.736,408C285.4,452.992 239.256,483.76 186.832,487.52ZM317.344,392L270.832,392C264.736,392 259.248,388.608 256.52,383.16L253.576,377.28C248.256,366.616 237.544,360 225.632,360C217.288,360 209.44,363.248 203.536,369.16L193.376,379.32C187.416,385.264 184,393.504 184,401.936L184,421.256C184,428.616 179.016,435 171.88,436.784C160.176,439.712 152,450.184 152,462.248C152,470.552 155.368,478.688 161.24,484.552L164.08,487.392C146.008,485.976 128.856,481.408 113.096,474.2L124.192,463.104C131.808,455.504 136,445.384 136,434.624C136,425.632 132.496,417.184 126.144,410.824C122.24,406.928 120,401.52 120,396C120,390.48 122.24,385.072 126.144,381.168L136.688,370.624C141.336,365.976 144,359.544 144,352.968C144,339.2 132.8,328 119.032,328C112.36,328 106.088,330.592 101.376,335.312L80.872,355.808C76.176,360.52 68.36,361.312 62.816,357.6L52.504,350.72C45.912,346.32 38.24,344 30.312,344L24.408,344C24.264,341.336 24,338.704 24,336C24,330.104 24.416,324.32 25.072,318.6L45.256,315.232C60.752,312.648 72,299.376 72,283.312C72,278.152 74.008,273.304 77.656,269.656C81.248,266.064 86.232,264 91.312,264L94,264C108.336,264 120,252.336 120,238C120,232.408 118.152,226.864 114.8,222.4L100.984,203.976C123.144,191.328 148.712,184 176,184C199.664,184 222.496,189.52 243.152,199.72L236.008,202.576C223.856,207.44 216,219.048 216,232.144C216,240.888 208.888,248 200.144,248L198.632,248C192.224,248 186.192,250.496 181.656,255.032L174.272,262.416C170.224,266.456 168,271.832 168,277.544C168,287.376 174.664,295.912 184.2,298.304L193.936,300.728C197.504,301.624 200,304.816 200,308.496C200,319.248 208.752,328 219.504,328L238.112,328C246.096,328 253.272,332.44 256.84,339.576C263.144,352.168 275.8,360 289.88,360L297.464,360C300.776,369.288 309.576,376 319.992,376L322.56,376C321.08,381.456 319.4,386.824 317.344,392ZM392,352C392,356.416 388.408,360 384,360L376,360L376,344L392,344L392,352Z" style="fill:rgb(32,2,108);fill-rule:nonzero;"/>
</svg>
