<?xml version="1.0" encoding="UTF-8" standalone="no"?>
<!DOCTYPE svg PUBLIC "-//W3C//DTD SVG 1.1//EN" "http://www.w3.org/Graphics/SVG/1.1/DTD/svg11.dtd">
<svg width="100%" height="100%" viewBox="0 0 512 512" version="1.1" xmlns="http://www.w3.org/2000/svg" xmlns:xlink="http://www.w3.org/1999/xlink" xml:space="preserve" xmlns:serif="http://www.serif.com/" style="fill-rule:evenodd;clip-rule:evenodd;stroke-linejoin:round;stroke-miterlimit:1.41421;">
    <g transform="matrix(2.23942,0,0,2.23942,-666.94,-25.6637)">
        <path d="M512,126.418C512,70.817 466.766,25.583 411.164,25.583C355.563,25.583 310.329,70.817 310.329,126.418C310.329,182.011 355.57,227.254 411.164,227.254C466.759,227.254 512,182.01 512,126.418ZM411.164,40.583C458.494,40.583 497,79.089 497,126.418C497,145.107 490.978,162.406 480.798,176.516C475.684,157.684 463.153,141.72 445.832,132.291C450.651,125.42 453.491,117.064 453.491,108.052C453.491,84.713 434.504,65.726 411.165,65.726C387.826,65.726 368.839,84.713 368.839,108.052C368.839,117.064 371.679,125.42 376.498,132.291C359.176,141.719 346.645,157.683 341.532,176.515C331.352,162.405 325.33,145.106 325.33,126.417C325.329,79.089 363.835,40.583 411.164,40.583ZM383.838,108.052C383.838,92.985 396.097,80.726 411.164,80.726C426.231,80.726 438.49,92.985 438.49,108.052C438.49,123.119 426.231,135.378 411.164,135.378C396.097,135.378 383.838,123.119 383.838,108.052ZM354.212,190.562C356.03,169.774 368.853,151.836 387.901,143.386C394.581,147.799 402.576,150.377 411.164,150.377C419.753,150.377 427.747,147.799 434.428,143.385C453.475,151.836 466.298,169.774 468.117,190.561C452.951,204.041 433.003,212.252 411.164,212.252C389.326,212.254 369.378,204.043 354.212,190.562Z" style="fill:white;fill-rule:nonzero;"/>
    </g>
</svg>
