<?xml version="1.0" encoding="UTF-8" standalone="no"?>
<!DOCTYPE svg PUBLIC "-//W3C//DTD SVG 1.1//EN" "http://www.w3.org/Graphics/SVG/1.1/DTD/svg11.dtd">
<svg width="100%" height="100%" viewBox="0 0 512 512" version="1.1" xmlns="http://www.w3.org/2000/svg" xmlns:xlink="http://www.w3.org/1999/xlink" xml:space="preserve" xmlns:serif="http://www.serif.com/" style="fill-rule:evenodd;clip-rule:evenodd;stroke-linejoin:round;stroke-miterlimit:1.41421;">
    <g id="quality">
        <path d="M483.68,427.04L353.52,296.96C350.42,293.879 345.34,293.879 342.24,296.96L336.56,302.64L304.64,270.72C325.007,243.107 336.001,209.681 336.001,175.369C336.001,87.249 263.489,14.737 175.369,14.737C87.249,14.737 14.737,87.249 14.737,175.369C14.737,263.489 87.249,336.001 175.369,336.001C209.681,336.001 243.107,325.007 270.72,304.64L302.64,336.56L296.96,342.24C293.879,345.34 293.879,350.42 296.96,353.52L427.04,483.68C434.548,491.188 444.742,495.411 455.36,495.411C477.331,495.411 495.411,477.331 495.411,455.36C495.411,444.742 491.188,434.548 483.68,427.04ZM104.48,272.88C88.68,248.853 80.176,220.756 80,192C80,121.44 123.04,64 176,64C228.96,64 272,121.44 272,192C271.859,220.811 263.353,248.969 247.52,273.04C247.844,270.038 248.004,267.02 248,264C248.702,238.35 242.483,212.978 230,190.56C231.319,185.819 231.992,180.921 232,176L232,128C231.997,124.336 229.477,121.119 225.92,120.24L161.92,104.24C160.064,103.771 158.099,103.999 156.4,104.88L124.4,120.88C121.684,122.2 119.965,124.98 120,128L120,176C120.008,180.921 120.681,185.819 122,190.56C109.517,212.978 103.298,238.35 104,264C103.996,266.967 104.156,269.931 104.48,272.88ZM195.2,254.4L217.44,271.12L176,294.8L134.56,271.12L156.8,254.4C158.799,252.879 159.983,250.512 160,248L160,229.68C170.441,232.773 181.559,232.773 192,229.68L192,248C192.017,250.512 193.201,252.879 195.2,254.4ZM176,216C154.057,216 136,197.943 136,176L136,132.96L160.96,120.48L216,134.24L216,176C216,197.943 197.943,216 176,216ZM130.48,208.56C134.242,213.709 138.807,218.22 144,221.92L144,244L120.08,261.92C119.976,243.62 123.512,225.481 130.48,208.56ZM227.44,310.32C194.427,323.199 157.753,323.227 124.72,310.4C127.442,308.414 128.631,304.912 127.68,301.68L127.36,300.8C125.52,294.88 123.68,288.72 122.32,282.48L172,310.96C174.484,312.344 177.516,312.344 180,310.96L229.76,282.48C228.32,289.2 226.4,295.6 224.48,301.68C223.539,304.888 224.729,308.362 227.44,310.32ZM208,244L208,221.92C213.193,218.22 217.758,213.709 221.52,208.56C228.488,225.481 232.024,243.62 231.92,261.92L208,244ZM245.04,302.32C272.392,272.065 287.688,232.785 288,192C288,112.56 237.76,48 176,48C114.24,48 64,112.56 64,192C64.369,232.919 79.814,272.299 107.36,302.56C60.975,277.419 31.98,228.721 31.98,175.961C31.98,96.965 96.983,31.961 175.98,31.961C254.976,31.961 319.98,96.965 319.98,175.961C319.98,228.542 291.18,277.103 245.04,302.32ZM283.12,294.48C287.104,290.896 290.896,287.104 294.48,283.12L325.28,313.92L313.92,325.28L283.12,294.48ZM472.32,472.32C462.892,481.344 447.828,481.344 438.4,472.32L313.92,347.92L347.92,313.92L472.32,438.4C476.824,442.892 479.359,448.999 479.359,455.36C479.359,461.721 476.824,467.828 472.32,472.32Z" style="fill:rgb(125,18,0);fill-rule:nonzero;"/>
        <path d="M56,368L24,368C19.611,368 16,371.611 16,376L16,488C16,492.389 19.611,496 24,496L56,496C60.389,496 64,492.389 64,488L64,376C64,371.611 60.389,368 56,368ZM48,480L32,480L32,384L48,384L48,480Z" style="fill:rgb(125,18,0);fill-rule:nonzero;"/>
        <path d="M120,400L88,400C83.611,400 80,403.611 80,408L80,488C80,492.389 83.611,496 88,496L120,496C124.389,496 128,492.389 128,488L128,408C128,403.611 124.389,400 120,400ZM112,480L96,480L96,416L112,416L112,480Z" style="fill:rgb(125,18,0);fill-rule:nonzero;"/>
        <path d="M184,432L152,432C147.611,432 144,435.611 144,440L144,488C144,492.389 147.611,496 152,496L184,496C188.389,496 192,492.389 192,488L192,440C192,435.611 188.389,432 184,432ZM176,480L160,480L160,448L176,448L176,480Z" style="fill:rgb(125,18,0);fill-rule:nonzero;"/>
        <rect x="208" y="456" width="16" height="16" style="fill:rgb(125,18,0);fill-rule:nonzero;"/>
        <path d="M296,456L240,456L240,472L304,472C308.389,472 312,468.389 312,464L312,384L296,384L296,456Z" style="fill:rgb(125,18,0);fill-rule:nonzero;"/>
        <path d="M493.68,50.32L461.68,18.32C460.155,16.847 458.12,16.016 456,16L360,16C355.611,16 352,19.611 352,24L352,216C352,220.389 355.611,224 360,224L488,224C492.389,224 496,220.389 496,216L496,56C495.984,53.88 495.153,51.845 493.68,50.32ZM480,208L368,208L368,32L452.72,32L480,59.28L480,208Z" style="fill:rgb(125,18,0);fill-rule:nonzero;"/>
        <rect x="416" y="240" width="16" height="16" style="fill:rgb(125,18,0);fill-rule:nonzero;"/>
        <path d="M416,296L392,296L392,312L424,312C428.389,312 432,308.389 432,304L432,272L416,272L416,296Z" style="fill:rgb(125,18,0);fill-rule:nonzero;"/>
        <rect x="384" y="48" width="64" height="16" style="fill:rgb(125,18,0);fill-rule:nonzero;"/>
        <rect x="384" y="80" width="80" height="16" style="fill:rgb(125,18,0);fill-rule:nonzero;"/>
        <rect x="384" y="144" width="80" height="16" style="fill:rgb(125,18,0);fill-rule:nonzero;"/>
        <rect x="384" y="112" width="32" height="16" style="fill:rgb(125,18,0);fill-rule:nonzero;"/>
        <rect x="432" y="112" width="32" height="16" style="fill:rgb(125,18,0);fill-rule:nonzero;"/>
        <rect x="384" y="176" width="48" height="16" style="fill:rgb(125,18,0);fill-rule:nonzero;"/>
        <rect x="448" y="176" width="16" height="16" style="fill:rgb(125,18,0);fill-rule:nonzero;"/>
        <rect x="152" y="144" width="16" height="16" style="fill:rgb(125,18,0);fill-rule:nonzero;"/>
        <rect x="184" y="144" width="16" height="16" style="fill:rgb(125,18,0);fill-rule:nonzero;"/>
    </g>
</svg>
