<?xml version="1.0" encoding="UTF-8" standalone="no"?>
<!DOCTYPE svg PUBLIC "-//W3C//DTD SVG 1.1//EN" "http://www.w3.org/Graphics/SVG/1.1/DTD/svg11.dtd">
<svg width="100%" height="100%" viewBox="0 0 512 512" version="1.1" xmlns="http://www.w3.org/2000/svg" xmlns:xlink="http://www.w3.org/1999/xlink" xml:space="preserve" xmlns:serif="http://www.serif.com/" style="fill-rule:evenodd;clip-rule:evenodd;stroke-linecap:round;stroke-linejoin:round;stroke-miterlimit:1.5;">
    <g transform="matrix(1,0,0,1,-6,29)">
        <path d="M40.367,65.922C40.367,65.922 85.167,65.241 106.954,64.91C113.765,64.806 119.748,69.414 121.387,76.026C133.327,125.002 145.62,186.845 166.423,267.204C170.005,281.039 182.523,290.677 196.815,290.602C248.119,290.337 366.511,289.715 407.795,289.498C416.41,289.453 423.968,283.743 426.365,275.468C439.103,231.421 451.353,187.21 463.076,142.821C467.459,126.226 471.768,109.606 476.002,92.961C477.631,86.551 476.192,79.749 472.107,74.548C468.021,69.347 461.753,66.337 455.14,66.401C410.579,66.832 327.756,67.633 327.756,67.633" style="fill:none;stroke:rgb(12,12,12);stroke-width:30px;"/>
    </g>
    <g transform="matrix(1,0,0,1,0.877814,-44.4556)">
        <path d="M150,436C150,460.812 170.187,481 195,481C219.812,481 240,460.812 240,436C240,411.187 219.812,391 195,391C170.187,391 150,411.187 150,436ZM195,421C203.269,421 210,427.73 210,436C210,444.269 203.269,451 195,451C186.73,451 180,444.269 180,436C180,427.73 186.73,421 195,421Z" style="fill:rgb(8,4,4);fill-rule:nonzero;"/>
    </g>
    <g transform="matrix(1,0,0,1,-35.1445,-44.4556)">
        <path d="M362,436C362,460.812 382.187,481 407,481C431.812,481 452,460.812 452,436C452,411.187 431.812,391 407,391C382.187,391 362,411.187 362,436ZM407,421C415.269,421 422,427.73 422,436C422,444.269 415.269,451 407,451C398.73,451 392,444.269 392,436C392,427.73 398.73,421 407,421Z" style="fill:rgb(8,4,4);fill-rule:nonzero;"/>
    </g>
</svg>
