<svg xmlns="http://www.w3.org/2000/svg" viewBox="0 0 100 125" x="0px" y="0px"><path fill="#555555" d="M40 10.8H18.8c-4.4 0-8 3.6-8 8V40c0 4.4 3.6 8 8 8H40c4.4 0 8-3.6 8-8V18.8c0-4.4-3.6-8-8-8zM44 40c0 2.2-1.8 4-4 4H18.8c-2.2 0-4-1.8-4-4V18.8c0-2.2 1.8-4 4-4H40c2.2 0 4 1.8 4 4V40zM81.2 10.8H60c-4.4 0-8 3.6-8 8V40c0 4.4 3.6 8 8 8h21.2c4.4 0 8-3.6 8-8V18.8c0-4.4-3.6-8-8-8zm4 29.2c0 2.2-1.8 4-4 4H60c-2.2 0-4-1.8-4-4V18.8c0-2.2 1.8-4 4-4h21.2c2.2 0 4 1.8 4 4V40zM40 52H18.8c-4.4 0-8 3.6-8 8v21.2c0 4.4 3.6 8 8 8H40c4.4 0 8-3.6 8-8V60c0-4.4-3.6-8-8-8zm4 29.2c0 2.2-1.8 4-4 4H18.8c-2.2 0-4-1.8-4-4V60c0-2.2 1.8-4 4-4H40c2.2 0 4 1.8 4 4v21.2zM81.2 52H60c-4.4 0-8 3.6-8 8v21.2c0 4.4 3.6 8 8 8h21.2c4.4 0 8-3.6 8-8V60c0-4.4-3.6-8-8-8zm4 29.2c0 2.2-1.8 4-4 4H60c-2.2 0-4-1.8-4-4V60c0-2.2 1.8-4 4-4h21.2c2.2 0 4 1.8 4 4v21.2z"/></svg>