
<svg xmlns="http://www.w3.org/2000/svg" width="64" height="64" enable-background="new 0 0 64 64" viewBox="0 0 64 64"><path fill="#006AC9" d="M21.6,23c0,3.1,1.9,5.7,4.6,6.7V16.3C23.5,17.3,21.6,19.9,21.6,23z"/><path fill="#004A97" d="M31.3,16.3v13.4c2.7-1,4.6-3.7,4.6-6.7C35.9,19.9,34,17.3,31.3,16.3z"/><path fill="#023563" d="M31.3 29.7c2.7-1 4.6-3.7 4.6-6.7M34.6 10.6h-5.8c-6.9 0-12.5 5.1-12.5 12.5 0 6.8 5.6 12.3 12.5 12.3h5.8c6.8 0 13-5.5 13-12.3C47.5 15.7 41.3 10.6 34.6 10.6zM28.8 34.3c-6.3 0-11.3-5.1-11.3-11.3 0-6.3 5.1-11.4 11.3-11.4 6.3 0 11.4 5.1 11.4 11.4C40.1 29.3 35 34.3 28.8 34.3z"/><path fill="#004A97" d="M3.5 43.9c0 1 .7 1.1 1.4 1.1 2.8 0 3.8-2.1 3.8-4.1 0-2.5-1.6-4.2-4.1-4.2-.5 0-.8 0-1 .1V43.9zM2.2 37.7c0-1.2-.6-1.1-1.2-1.1v-.3c.5 0 1 0 1.5 0 .6 0 1.3 0 2.3 0 3.4 0 5.2 2.3 5.2 4.6 0 1.3-.8 4.6-5.4 4.6-.7 0-1.3 0-1.9 0-.6 0-1.2 0-1.8 0v-.3c.8-.1 1.2-.1 1.2-1V37.7zM12 37.4c-.3 0-.6-.3-.6-.7 0-.3.3-.6.6-.6.3 0 .6.3.6.6C12.6 37.1 12.3 37.4 12 37.4M10.6 45.1h.3c.4 0 .6 0 .6-.4v-3.6c0-.6-.2-.7-.7-.9V40c.6-.2 1.3-.4 1.4-.5.1-.1.2-.1.2-.1.1 0 .1.1.1.2v5c0 .4.3.4.7.4h.2v.3c-.4 0-.9 0-1.4 0-.5 0-.9 0-1.4 0V45.1zM14.6 41.2c0-.5-.1-.6-.8-.9v-.2c.6-.2 1.1-.4 1.7-.6 0 0 .1 0 .1.1v.9c.7-.5 1.4-1 2.3-1 1.1 0 1.5.8 1.5 1.8v3.4c0 .4.3.4.7.4h.2v.3c-.5 0-.9 0-1.4 0-.5 0-.9 0-1.4 0v-.3h.2c.4 0 .6 0 .6-.4v-3.4c0-.7-.5-1.1-1.2-1.1-.4 0-1.1.3-1.5.6v3.9c0 .4.3.4.7.4h.2v.3c-.5 0-.9 0-1.4 0-.5 0-.9 0-1.4 0v-.3H14c.4 0 .6 0 .6-.4V41.2zM23.6 41.4c.3 0 .4-.2.4-.3 0-.7-.4-1.2-1.1-1.2-.8 0-1.4.6-1.5 1.5H23.6zM21.3 41.8c0 .1 0 .3 0 .8.1 1.2.9 2.3 1.9 2.3.7 0 1.3-.4 1.8-.9l.2.2c-.6.8-1.4 1.5-2.4 1.5-2.1 0-2.5-2-2.5-2.9 0-2.6 1.7-3.3 2.6-3.3 1.1 0 2.2.7 2.2 2.1 0 .1 0 .2 0 .2L25 41.8H21.3zM25.4 45.1h.4c.4 0 .6 0 .6-.4V41c0-.4-.5-.5-.7-.6v-.2c1-.4 1.5-.7 1.6-.7.1 0 .1 0 .1.2v1.2h0c.3-.5.9-1.3 1.7-1.3.3 0 .7.2.7.7 0 .4-.2.7-.6.7-.4 0-.4-.3-.9-.3-.2 0-1 .3-1 1.1v3.1c0 .4.3.4.6.4h.7v.3c-.7 0-1.3 0-1.8 0-.5 0-1.1 0-1.6 0V45.1zM30.5 43.6c.2.9.7 1.6 1.7 1.6.8 0 1.1-.5 1.1-.9 0-1.5-2.9-1-2.9-3.2 0-.7.6-1.7 2-1.7.4 0 1 .1 1.5.4l.1 1.3h-.3c-.1-.8-.6-1.3-1.4-1.3-.5 0-1 .3-1 .9 0 1.5 3 1.1 3 3.1 0 .9-.7 1.8-2.3 1.8-.5 0-1.1-.2-1.6-.4l-.1-1.5L30.5 43.6zM46.1 38.6h-.3c-.2-1.5-1.3-2.1-2.8-2.1-1.5 0-3.7 1-3.7 4.2 0 2.6 1.9 4.5 3.9 4.5 1.3 0 2.4-.9 2.6-2.3l.3.1-.3 1.9c-.6.3-2 .7-2.9.7-3.1 0-5-2-5-4.9 0-2.7 2.4-4.6 5-4.6 1.1 0 2.1.3 3.1.7L46.1 38.6zM46.6 45.1h.2c.4 0 .6 0 .6-.4v-7.3c0-.9-.2-.9-.7-1v-.2c.5-.2 1.1-.4 1.4-.6.1-.1.2-.1.3-.1.1 0 .1.1.1.2v9.1c0 .4.3.4.7.4h.2v.3c-.4 0-.9 0-1.4 0-.5 0-.9 0-1.4 0V45.1zM55 44.7c0 .2.1.2.4.2.2 0 .4 0 .5 0v.3c-.6.1-1.6.3-1.9.4l-.1 0v-1.1c-.8.6-1.4 1.1-2.3 1.1-.7 0-1.4-.5-1.4-1.6v-3.4c0-.3-.1-.7-.8-.7v-.2c.5 0 1.5-.1 1.7-.1.1 0 .1.1.1.4v3.4c0 .4 0 1.5 1.1 1.5.4 0 1-.3 1.6-.8v-3.5c0-.3-.6-.4-1.1-.5v-.2c1.2-.1 1.9-.2 2-.2.1 0 .1.1.1.2V44.7zM57.6 43.9c0 .5.5 1.3 1.4 1.3 1.4 0 2-1.4 2-2.5 0-1.4-1.1-2.6-2.1-2.6-.5 0-.9.3-1.2.6V43.9zM57.6 40.4c.5-.4 1.2-.9 2-.9 1.5 0 2.4 1.3 2.4 2.8 0 1.7-1.3 3.4-3.1 3.4-1 0-1.5-.3-1.8-.5l-.4.3-.3-.1c.1-.8.2-1.5.2-2.3v-5.6c0-.9-.2-.9-.7-1v-.2c.5-.2 1.1-.4 1.4-.6.1-.1.2-.1.3-.1.1 0 .1.1.1.2V40.4z"/><path fill="#006AC9" d="M1,53h0.1c0.3,0,0.5,0,0.5-0.4v-3.7c0-0.4-0.3-0.4-0.5-0.4H1v-0.2c0.3,0,0.7,0,1.1,0c0.4,0,0.8,0,1.1,0      v0.2H3.1c-0.3,0-0.5,0-0.5,0.4v3.7C2.6,53,2.8,53,3.1,53h0.1v0.2c-0.3,0-0.8,0-1.1,0c-0.3,0-0.8,0-1,0V53z"/><path fill="#006AC9" d="M3.2 53.2v-.2H3.1c-.3 0-.6 0-.6-.4v-3.7c0-.4.3-.4.6-.4h.1v-.2c-.3 0-.7 0-1.1 0-.3 0-.7 0-1 0v.2h.1c.3 0 .6 0 .6.4v3.7c0 .4-.3.4-.6.4H1.1v.2c.3 0 .7 0 1 0C2.4 53.2 2.8 53.2 3.2 53.2M3.2 53.3c-.3 0-.8 0-1.1 0-.3 0-.8 0-1 0h0v0V53v0h0 .1c.3 0 .5 0 .5-.4v-3.7c0-.4-.2-.4-.5-.4H1v0-.2h0c.3 0 .7 0 1.1 0 .4 0 .8 0 1.1 0h0v0 .2h0H3.1c-.3 0-.5 0-.5.4v3.7C2.6 53 2.8 53 3.1 53h.1v0L3.2 53.3 3.2 53.3zM8.1 51.8L8.1 51.8l0-2.7c0-.6-.4-.7-.6-.7H7.3v-.2c.3 0 .7 0 1 0 .3 0 .6 0 .9 0v.2H9.1c-.3 0-.6.1-.6.9v3.2c0 .2 0 .5 0 .7H8.2l-3.7-4.1v2.9c0 .6.1.8.7.8h.1v.2c-.3 0-.6 0-.9 0-.3 0-.6 0-1 0V53h.1c.5 0 .6-.3.6-.9v-3c0-.4-.3-.6-.6-.6H3.5v-.2c.3 0 .6 0 .8 0 .2 0 .4 0 .6 0L8.1 51.8z"/><path fill="#006AC9" d="M8.1 51.8L8.1 51.8 8.1 51.8 8.1 51.8zM8.1 51.8L8.1 51.8 8.1 51.8zM8.2 53.3h.2c0-.2 0-.5 0-.7v-3.2c0-.9.4-.9.7-.9h.1v-.2c-.3 0-.6 0-.8 0-.3 0-.6 0-1 0l0 .2h.1c.2 0 .7.1.7.7l0 2.7 0 0 0 0-3.2-3.6c-.2 0-.4 0-.6 0-.3 0-.5 0-.8 0l0 .2h.1c.3 0 .7.3.7.7v3c0 .6-.2.9-.7.9l-.1 0v.2c.3 0 .6 0 .9 0 .3 0 .6 0 .9 0v-.2H5.2c-.6 0-.7-.2-.7-.9v-3L8.2 53.3zM8.5 53.4l-.3 0-3.6-4v2.9c0 .6.1.8.6.8h.2v0 .2h0c-.3 0-.6 0-.9 0-.3 0-.6 0-1 0h0v0V53h0 .1c.5 0 .6-.3.6-.9v-3c0-.4-.3-.6-.6-.6H3.4v0-.2h0c.3 0 .6 0 .8 0 .2 0 .4 0 .7 0l3.1 3.5v-2.6c0-.6-.4-.6-.6-.6H7.3v0-.2h0c.3 0 .7 0 1 0 .3 0 .6 0 .9 0h0v0 .2h0H9.1c-.3 0-.6 0-.6.9v3.2C8.5 52.9 8.5 53.1 8.5 53.4L8.5 53.4 8.5 53.4zM10.3 48.6c-.5 0-.6.1-.7.6H9.4c0-.2.1-.4.1-.6 0-.2 0-.4 0-.6h.2c.1.2.2.2.4.2h3.7c.2 0 .4 0 .4-.2l.2 0c0 .2-.1.4-.1.6 0 .2 0 .4 0 .6l-.2.1c0-.3 0-.7-.5-.7h-1.2v3.8c0 .5.2.6.6.6h.1v.2c-.3 0-.8 0-1.2 0-.4 0-.9 0-1.2 0V53h.1c.4 0 .6 0 .6-.6v-3.8H10.3z"/><path fill="#006AC9" d="M13.1 53.3c-.3 0-.8 0-1.2 0-.4 0-.9 0-1.2 0h0v0V53h0 .1c.4 0 .6 0 .6-.6v-3.8h-1.1v0 0h1.2v3.8c0 .6-.2.6-.6.6h-.1v.2c.3 0 .8 0 1.2 0C12.3 53.2 12.8 53.2 13.1 53.3l0-.2H13c-.3 0-.6-.1-.6-.6v-3.8h1.2c.5 0 .5.4.6.7l.2-.1c0-.2 0-.4 0-.6 0-.2 0-.4.1-.5l-.1 0c0 .2-.2.2-.4.2h-3.7 0c-.2 0-.4 0-.4-.2H9.6c0 .2 0 .4 0 .6 0 .2-.1.4-.1.6h.2c.1-.5.2-.7.7-.6v0 0c-.5 0-.5.1-.6.6l0 0h0H9.4l0 0c0-.2.1-.4.1-.6 0-.2 0-.4 0-.6v0h0 .2l0 0c0 .2.2.2.4.2h0 3.7c.2 0 .3 0 .4-.2l0 0 0 0 .2 0 0 0c0 .2-.1.4-.1.6 0 .2 0 .4 0 .6v0l0 0L14 49.4l0 0c0-.3 0-.7-.5-.7h-1.1v3.8c0 .5.2.6.6.6h.2v0L13.1 53.3 13.1 53.3zM14.6 53h.1c.3 0 .5 0 .5-.4v-3.7c0-.4-.3-.4-.5-.4h-.1v-.2c.4 0 1.2 0 1.8 0 .6 0 1.3 0 1.8 0 0 .3 0 .8 0 1.1L18 49.4c0-.5-.1-.8-.9-.8h-1v1.9H17c.4 0 .5-.2.6-.6h.2c0 .3 0 .6 0 .8 0 .3 0 .5 0 .8l-.2 0c0-.4-.1-.7-.6-.7h-.9v1.7c0 .5.4.5.9.5.9 0 1.2-.1 1.5-.9l.2 0c-.1.4-.2.8-.2 1.1-.5 0-1.3 0-1.9 0-.6 0-1.5 0-1.9 0V53z"/><path fill="#006AC9" d="M18.4 53.2c.1-.4.1-.7.2-1.1l-.1 0C18.3 52.9 17.9 53 17 53c-.4 0-.9 0-.9-.5v-1.7H17c.5 0 .5.3.6.7l.2 0c0-.3 0-.5 0-.8 0-.3 0-.5 0-.8h-.2c0 .4-.2.6-.6.6h-.9v-1.9h1c.7 0 .9.4.9.8l.2 0c0-.2 0-.5 0-.7 0-.1 0-.2 0-.3-.5 0-1.2 0-1.8 0-.6 0-1.3 0-1.7 0v.2h.1c.3 0 .6 0 .6.4v3.7c0 .4-.3.4-.6.4h-.1v.2c.4 0 1.2 0 1.9 0C17.1 53.2 17.9 53.2 18.4 53.2M18.4 53.3c-.5 0-1.3 0-1.9 0-.6 0-1.5 0-1.9 0h0v0V53v0h0 .1c.3 0 .5 0 .5-.4v-3.7c0-.3-.2-.4-.5-.4h-.1v0-.2h0c.4 0 1.2 0 1.8 0 .6 0 1.3 0 1.8 0h0l0 0c0 .1 0 .2 0 .4 0 .2 0 .5 0 .7v0l0 0L18 49.5l0 0c0-.5-.1-.8-.8-.8h-1v1.8H17c.4 0 .5-.2.5-.6l0 0h0 .2v0c0 .3 0 .6 0 .8 0 .3 0 .5 0 .8v0l0 0-.2 0 0 0c0-.4-.1-.7-.5-.7h-.8v1.6c0 .4.4.4.8.4.9 0 1.2 0 1.4-.8l0 0 0 0 .2.1 0 0C18.6 52.5 18.5 52.9 18.4 53.3L18.4 53.3 18.4 53.3zM20.5 50.7h.3c.7 0 1.1-.3 1.1-1.1 0-.6-.4-1-1-1-.2 0-.3 0-.4 0V50.7zM19.6 49c0-.5-.3-.5-.5-.5H19v-.2c.2 0 .7 0 1.1 0 .4 0 .8 0 1.1 0 .9 0 1.7.2 1.7 1.3 0 .6-.4 1-1 1.3l1.2 1.8c.2.3.3.4.7.4v.2c-.2 0-.5 0-.7 0-.2 0-.5 0-.7 0-.5-.7-1-1.5-1.5-2.3h-.5v1.5c0 .5.3.6.6.6h.1v.2c-.4 0-.8 0-1.2 0-.3 0-.7 0-1 0V53h.1c.3 0 .5-.1.5-.4V49z"/><path fill="#006AC9" d="M20.9 50.7c.7 0 1.1-.2 1.1-1.1 0-.6-.4-1-1-1-.2 0-.3 0-.4 0v2.1H20.9zM20.5 50.7L20.5 50.7l0-2.2 0 0c.1 0 .2 0 .4 0 .6 0 1.1.4 1.1 1.1 0 .9-.4 1.1-1.1 1.1H20.5zM20.5 50.9H21l0 0c.5.8.9 1.6 1.5 2.3.2 0 .4 0 .7 0 .2 0 .5 0 .7 0v-.2c-.3 0-.5-.1-.7-.4l-1.2-1.9 0 0c.6-.2 1-.6 1-1.2 0-1-.8-1.2-1.7-1.2-.4 0-.7 0-1.1 0-.4 0-.8 0-1.1 0v.2h.1c.2 0 .5 0 .5.6v3.6c0 .3-.3.4-.5.4H19v.2c.3 0 .7 0 1 0 .4 0 .8 0 1.2 0v-.2h-.1c-.3 0-.6 0-.6-.6L20.5 50.9 20.5 50.9zM23.9 53.3c-.2 0-.5 0-.7 0-.2 0-.4 0-.7 0-.5-.7-1-1.5-1.5-2.3h-.4v1.5c0 .5.2.5.6.5h.2v0 .2h0c-.4 0-.8 0-1.2 0-.3 0-.7 0-1 0h0v0V53h0 .1c.3 0 .5-.1.5-.4V49c0-.5-.3-.5-.5-.5H19v0-.2h0c.2 0 .7 0 1.1 0 .4 0 .8 0 1.1 0 .9 0 1.7.3 1.7 1.3 0 .6-.4 1-1 1.3l1.2 1.8c.2.3.3.4.7.4l0 0v0L23.9 53.3 23.9 53.3zM28.7 51.8L28.7 51.8l0-2.7c0-.6-.4-.7-.6-.7h-.2v-.2c.3 0 .7 0 1 0 .3 0 .6 0 .9 0v.2h-.1c-.3 0-.6.1-.6.9v3.2c0 .2 0 .5 0 .7h-.3l-3.7-4.1v2.9c0 .6.1.8.7.8H26v.2c-.3 0-.6 0-.9 0-.3 0-.6 0-1 0V53h.1c.5 0 .6-.3.6-.9v-3c0-.4-.3-.6-.7-.6h-.1v-.2c.3 0 .5 0 .8 0 .2 0 .4 0 .6 0L28.7 51.8z"/><path fill="#006AC9" d="M28.7 51.8L28.7 51.8 28.7 51.8 28.7 51.8zM28.7 51.8L28.7 51.8 28.7 51.8zM28.8 53.3h.2c0-.2 0-.5 0-.7v-3.2c0-.9.4-.9.7-.9h.1v-.2c-.3 0-.6 0-.8 0-.3 0-.6 0-1 0v.2h.1c.2 0 .7.1.7.7l0 2.7 0 0 0 0-3.2-3.6c-.2 0-.4 0-.6 0-.3 0-.5 0-.8 0v.2h.1c.3 0 .7.3.7.7v3c0 .6-.2.9-.7.9l-.1 0v.2c.3 0 .6 0 .9 0 .3 0 .6 0 .9 0v-.2h-.1c-.6 0-.7-.2-.7-.9v-3L28.8 53.3zM29.1 53.4l-.3 0-3.6-4v2.9c0 .6.1.8.6.8H26v0 .2h0c-.3 0-.6 0-.9 0-.3 0-.6 0-1 0h0v0V53h0 .1c.5 0 .6-.3.6-.9v-3c0-.4-.3-.6-.6-.6H24v0-.2h0c.3 0 .6 0 .8 0 .2 0 .4 0 .7 0l3.1 3.5v-2.6c0-.6-.4-.6-.6-.6h-.2v0-.2h0c.3 0 .7 0 1 0 .3 0 .6 0 .9 0h0v0 .2h0-.1c-.3 0-.6 0-.6.9v3.2C29.1 52.9 29.1 53.1 29.1 53.4L29.1 53.4 29.1 53.4zM32 49.1L32 49.1l-.7 2h1.3L32 49.1zM31 52.2c-.1.2-.2.4-.2.6 0 .2.3.2.5.2h.1v.2c-.3 0-.6 0-.9 0-.3 0-.5 0-.8 0V53h0c.3 0 .5-.2.6-.5l1.1-3.3c.1-.3.2-.6.3-.9.2-.1.5-.2.7-.3 0 0 0 0 .1 0 0 0 0 0 0 0 0 .1 0 .1.1.2L34 52c.1.2.2.5.3.7.1.2.2.3.5.3h0v.2c-.3 0-.6 0-1 0-.4 0-.7 0-1.1 0V53h.1c.2 0 .4 0 .4-.2 0-.1-.1-.3-.1-.5l-.3-.8h-1.6L31 52.2z"/><path fill="#006AC9" d="M32 49.1L32 49.1 32 49.1zM31.4 51.1h1.3L32 49.1 31.4 51.1zM31.3 51.1L32 49h0 0v0l0 0 0 0v0h0l.7 2.1H31.3zM32.7 53.2c.4 0 .7 0 1 0 .3 0 .6 0 1 0v-.2h0c-.2 0-.4-.1-.5-.3C34.1 52.6 34 52.3 34 52l-1.3-3.7c0-.1 0-.1-.1-.2 0 0 0 0 0 0h0c0 0 0 0 0 0-.1.1-.4.2-.6.3 0 .3-.2.6-.3.9l-1.1 3.3c-.1.3-.4.5-.7.5h0v.2c.2 0 .5 0 .7 0 .3 0 .6 0 .8 0v-.2h0c-.2 0-.6 0-.6-.3 0-.1.1-.3.2-.6l0 0 0 0 .2-.8h1.7l.3.8c.1.2.1.4.1.5 0 .2-.3.2-.5.2h0V53.2zM34.8 53.3c-.3 0-.6 0-1 0-.4 0-.7 0-1.1 0l0 0v0V53h0 .1c.2 0 .4 0 .4-.2 0-.1-.1-.3-.1-.5l-.3-.8h-1.6L31 52.2c-.1.2-.2.4-.2.5 0 .2.3.2.5.2h.1v0 .2l0 0c-.3 0-.6 0-.9 0-.3 0-.5 0-.8 0l0 0v0V53h0 0c.3 0 .5-.2.6-.4l1.1-3.3c.1-.3.2-.6.3-.9.2-.1.5-.2.6-.3 0 0 0 0 .1 0 0 0 .1 0 .1 0 0 .1 0 .1.1.2L34 52c.1.3.2.5.3.7.1.2.2.3.4.3h.1v0L34.8 53.3 34.8 53.3zM35.1 48.6c-.5 0-.6.1-.7.6h-.2c0-.2.1-.4.1-.6 0-.2 0-.4 0-.6h.2c.1.2.2.2.4.2h3.7c.2 0 .4 0 .4-.2l.2 0c0 .2-.1.4-.1.6 0 .2 0 .4 0 .6l-.2.1c0-.3-.1-.7-.5-.7h-1.2v3.8c0 .5.2.6.6.6h.1v.2c-.3 0-.8 0-1.2 0-.4 0-.9 0-1.2 0V53h.1c.4 0 .6 0 .6-.6v-3.8H35.1z"/><path fill="#006AC9" d="M37.9,53.3c-0.3,0-0.8,0-1.2,0c-0.4,0-0.9,0-1.2,0h0v0V53h0h0.1c0.4,0,0.5,0,0.6-0.6v-3.8h-1.1v0v0h1.2      v3.8c0,0.6-0.2,0.6-0.6,0.6h-0.1v0.2c0.3,0,0.8,0,1.2,0C37.1,53.2,37.6,53.2,37.9,53.3l0-0.2h-0.1c-0.3,0-0.6-0.1-0.6-0.6v-3.8      h1.2c0.5,0,0.5,0.4,0.6,0.7l0.2-0.1c0-0.2,0-0.4,0-0.6c0-0.2,0-0.4,0.1-0.5l-0.1,0c0,0.2-0.2,0.2-0.4,0.2h-3.7h0      c-0.2,0-0.3,0-0.4-0.2h-0.1c0,0.2,0,0.4,0,0.6c0,0.2-0.1,0.4-0.1,0.6h0.2c0.1-0.5,0.2-0.7,0.7-0.6v0v0c-0.5,0-0.5,0.1-0.6,0.6      l0,0h0h-0.3l0,0c0-0.2,0.1-0.4,0.1-0.6c0-0.2,0-0.4,0-0.6v0h0h0.2l0,0c0,0.2,0.2,0.2,0.4,0.2c0,0,0,0,0,0h3.7      c0.2,0,0.3,0,0.4-0.2v0l0,0l0.2,0l0,0c0,0.2-0.1,0.4-0.1,0.6c0,0.2,0,0.4,0,0.6v0l0,0l-0.3,0.1l0,0c0-0.3,0-0.7-0.5-0.7h-1.1      v3.8c0,0.5,0.2,0.6,0.6,0.6h0.2v0L37.9,53.3L37.9,53.3z"/><path fill="#006AC9" d="M39.4,53L39.4,53c0.4,0,0.6,0,0.6-0.4v-3.7c0-0.4-0.3-0.4-0.5-0.4h-0.1v-0.2c0.3,0,0.7,0,1.1,0      c0.4,0,0.8,0,1.1,0v0.2h-0.1c-0.3,0-0.5,0-0.5,0.4v3.7c0,0.4,0.3,0.4,0.5,0.4h0.1v0.2c-0.3,0-0.8,0-1.1,0c-0.3,0-0.8,0-1,0V53z"/><path fill="#006AC9" d="M41.6 53.2v-.2h-.1c-.3 0-.6 0-.6-.4v-3.7c0-.4.3-.4.6-.4h.1v-.2c-.3 0-.7 0-1.1 0-.3 0-.7 0-1 0v.2h.1c.3 0 .6 0 .6.4v3.7c0 .4-.3.4-.6.4h-.1v.2c.3 0 .7 0 1 0C40.8 53.2 41.2 53.2 41.6 53.2M41.6 53.3c-.3 0-.8 0-1.1 0-.3 0-.8 0-1 0h0v0V53v0h0 .1c.3 0 .5 0 .5-.4v-3.7c0-.3-.2-.4-.5-.4h-.1v0-.2h0c.3 0 .7 0 1.1 0 .4 0 .8 0 1.1 0h0v0 .2h0-.1c-.3 0-.5 0-.5.4v3.7c0 .3.2.4.5.4h.1v0L41.6 53.3 41.6 53.3zM44.6 53c1.4 0 1.6-1.2 1.6-2.3 0-1-.6-2.3-1.7-2.3-1.3 0-1.6 1.1-1.6 2.1C42.8 51.8 43.4 53 44.6 53M44.5 48.2c1.5 0 2.7.9 2.7 2.5 0 1.6-1.2 2.7-2.7 2.7-1.5 0-2.7-1-2.7-2.6C41.8 49.3 43 48.2 44.5 48.2"/><path fill="#006AC9" d="M42.8 50.5c0-1 .4-2.1 1.7-2.1 1.2 0 1.8 1.3 1.8 2.3 0 1-.2 2.3-1.7 2.3v0 0c1.4 0 1.6-1.2 1.6-2.2 0-1-.6-2.3-1.7-2.3C43.2 48.5 42.9 49.6 42.8 50.5c.1 1.3.6 2.5 1.8 2.5v0 0C43.4 53.1 42.8 51.8 42.8 50.5M41.8 50.8c0-1.5 1.2-2.7 2.7-2.7v0 0C43 48.2 41.9 49.3 41.8 50.8c.1 1.5 1.2 2.5 2.7 2.5 1.5 0 2.7-1.1 2.7-2.7 0-1.5-1.2-2.4-2.7-2.4v0 0c1.5 0 2.8 1 2.8 2.5 0 1.7-1.2 2.8-2.7 2.8C43 53.4 41.8 52.4 41.8 50.8M52 51.8L52 51.8l0-2.7c0-.6-.4-.7-.6-.7h-.2v-.2c.3 0 .7 0 1 0 .3 0 .6 0 .9 0v.2H53c-.3 0-.6.1-.6.9v3.2c0 .2 0 .5 0 .7h-.3l-3.7-4.1v2.9c0 .6.1.8.7.8h.1v.2c-.3 0-.6 0-.9 0-.3 0-.6 0-1 0V53h.1c.5 0 .6-.3.6-.9v-3c0-.4-.3-.6-.6-.6h-.1v-.2c.3 0 .5 0 .8 0 .2 0 .4 0 .6 0L52 51.8z"/><path fill="#006AC9" d="M52 51.8L52 51.8 52 51.8 52 51.8zM52 51.8L52 51.8 52 51.8zM52.1 53.3h.2c0-.2 0-.5 0-.7v-3.2c0-.9.4-.9.7-.9h.1v-.2c-.3 0-.6 0-.8 0-.3 0-.6 0-1 0v.2h.1c.2 0 .7.1.7.7l0 2.7 0 0 0 0-3.2-3.6c-.2 0-.4 0-.6 0-.3 0-.5 0-.8 0v.2h.1c.3 0 .7.3.7.7v3c0 .6-.2.9-.7.9l-.1 0v.2c.3 0 .6 0 .9 0 .3 0 .6 0 .9 0v-.2h-.1c-.6 0-.7-.2-.7-.9v-3L52.1 53.3zM52.4 53.4l-.3 0-3.6-4v2.9c0 .6.1.8.6.8h.2v0 .2h0c-.3 0-.6 0-.9 0-.3 0-.6 0-1 0h0v0V53h0 .1c.5 0 .6-.3.6-.9v-3c0-.4-.3-.6-.6-.6h-.1v0-.2h0c.3 0 .6 0 .8 0 .2 0 .4 0 .7 0l3.1 3.5v-2.6c0-.6-.4-.6-.6-.6h-.2v0-.2h0c.3 0 .7 0 1 0 .3 0 .6 0 .9 0h0v0 .2h0H53c-.3 0-.6 0-.6.9v3.2C52.4 52.9 52.4 53.1 52.4 53.4L52.4 53.4 52.4 53.4zM55.3 49.1L55.3 49.1l-.7 2H56L55.3 49.1zM54.3 52.2c-.1.2-.2.4-.2.6 0 .2.3.2.5.2h.1v.2c-.3 0-.6 0-.9 0-.3 0-.5 0-.8 0V53h0c.3 0 .5-.2.6-.5l1.1-3.3c.1-.3.2-.6.3-.9.2-.1.5-.2.7-.3 0 0 0 0 .1 0 0 0 0 0 0 0 0 .1 0 .1.1.2l1.3 3.7c.1.2.2.5.3.7C57.6 53 57.8 53 58 53h0v.2c-.3 0-.6 0-1 0-.3 0-.7 0-1.1 0V53h.1c.2 0 .4 0 .4-.2 0-.1-.1-.3-.1-.5l-.3-.8h-1.6L54.3 52.2z"/><path fill="#006AC9" d="M55.3,49.1L55.3,49.1L55.3,49.1z M54.7,51.1h1.2l-0.6-1.9L54.7,51.1z M54.6,51.1l0.7-2.1h0h0v0l0,0l0,0      v0h0l0.7,2.1H54.6z M56,53.2c0.4,0,0.7,0,1,0c0.3,0,0.6,0,1,0l0-0.2h0c-0.2,0-0.4-0.1-0.5-0.3c-0.1-0.2-0.2-0.5-0.3-0.7      l-1.3-3.7c0-0.1,0-0.1-0.1-0.2c0,0,0,0,0,0h0c0,0,0,0,0,0c-0.1,0.1-0.4,0.2-0.6,0.3c0,0.3-0.2,0.6-0.3,0.9l-1.1,3.3      c-0.1,0.3-0.4,0.5-0.6,0.5h0v0.2c0.2,0,0.5,0,0.7,0c0.3,0,0.6,0,0.8,0v-0.2h0c-0.2,0-0.6,0-0.6-0.3c0-0.1,0.1-0.3,0.2-0.6l0,0      l0,0l0.2-0.8h1.7l0.3,0.8c0.1,0.2,0.1,0.4,0.1,0.5c0,0.2-0.3,0.2-0.5,0.2h0V53.2z M58.1,53.3c-0.3,0-0.6,0-1,0      c-0.3,0-0.7,0-1.1,0l0,0v0V53h0h0.1c0.2,0,0.4,0,0.4-0.2c0-0.1-0.1-0.3-0.1-0.5l-0.3-0.8h-1.6l-0.2,0.7      c-0.1,0.2-0.2,0.4-0.2,0.5c0,0.2,0.3,0.2,0.5,0.2h0.1v0v0.2l0,0c-0.3,0-0.6,0-0.9,0c-0.3,0-0.5,0-0.8,0l0,0v0V53h0h0      c0.3,0,0.5-0.2,0.6-0.4l1.1-3.3c0.1-0.3,0.2-0.6,0.3-0.9c0.2-0.1,0.5-0.2,0.7-0.3c0,0,0,0,0.1,0c0,0,0.1,0,0.1,0      c0,0.1,0,0.1,0.1,0.2l1.3,3.7c0.1,0.3,0.2,0.5,0.3,0.7c0.1,0.2,0.2,0.3,0.4,0.3h0.1v0L58.1,53.3L58.1,53.3z"/><g><path fill="#006AC9" d="M59.9,52.6c0,0.3,0.2,0.4,0.4,0.4c0.3,0,0.6,0,0.9,0c0.3,0,0.6-0.2,0.7-0.4c0.1-0.2,0.2-0.4,0.2-0.5h0.2      c-0.1,0.4-0.2,0.8-0.3,1.2c-0.6,0-1.3,0-1.9,0s-1.3,0-1.9,0V53h0.1c0.3,0,0.5,0,0.5-0.5v-3.7c0-0.4-0.3-0.4-0.5-0.4h-0.1v-0.2      c0.4,0,0.7,0,1.1,0c0.4,0,0.7,0,1.1,0v0.2h-0.2c-0.3,0-0.5,0-0.5,0.4V52.6z"/></g><g><path fill="#006AC9" d="M62,53.2c0.1-0.4,0.2-0.8,0.3-1.1h-0.1c0,0.2-0.1,0.3-0.2,0.5c-0.1,0.2-0.4,0.4-0.7,0.4      c-0.2,0-0.4,0-0.5,0c-0.1,0-0.3,0-0.4,0c-0.2,0-0.5-0.1-0.5-0.4v-3.7c0-0.4,0.2-0.4,0.5-0.4h0.1v-0.2c-0.4,0-0.7,0-1.1,0      c-0.4,0-0.7,0-1.1,0v0.2h0.1c0.3,0,0.6,0,0.6,0.4v3.7c0,0.5-0.3,0.5-0.6,0.5h-0.1v0.2c0.6,0,1.2,0,1.9,0      C60.8,53.2,61.4,53.2,62,53.2 M62.1,53.3c-0.6,0-1.3,0-1.9,0c-0.6,0-1.3,0-1.9,0h0v0V53h0h0.1c0.3,0,0.5,0,0.5-0.4v-3.7      c0-0.3-0.2-0.4-0.5-0.4h-0.1v0v-0.2h0c0.4,0,0.8,0,1.1,0c0.4,0,0.7,0,1.1,0h0v0v0.2h0h-0.2c-0.3,0-0.5,0-0.5,0.4v3.7      c0,0.3,0.2,0.3,0.4,0.4c0.1,0,0.3,0,0.4,0c0.2,0,0.4,0,0.5,0c0.3,0,0.5-0.2,0.7-0.4c0.1-0.2,0.2-0.3,0.2-0.5l0,0h0h0.2l0,0      C62.3,52.5,62.2,52.9,62.1,53.3L62.1,53.3L62.1,53.3z"/></g><g><path fill="#006AC9" d="M62.1,48.8L62.1,48.8c0.2,0,0.2-0.1,0.2-0.2c0-0.1-0.1-0.2-0.1-0.2h-0.1V48.8z M61.9,49.2L61.9,49.2      c0.1,0,0.1,0,0.1-0.1v-0.6c0-0.1,0-0.1-0.1-0.1v0h0.4c0.1,0,0.3,0.1,0.3,0.2c0,0.1-0.1,0.2-0.2,0.2l0.1,0.2      c0.1,0.1,0.1,0.2,0.2,0.2v0h-0.1c-0.1,0-0.1-0.1-0.3-0.3h-0.1v0.2c0,0.1,0,0,0.1,0.1v0H61.9z M62.2,49.4c0.3,0,0.6-0.3,0.6-0.6      c0-0.3-0.3-0.6-0.6-0.6c-0.3,0-0.6,0.3-0.6,0.6C61.7,49.1,61.9,49.4,62.2,49.4 M62.2,48.1c0.4,0,0.8,0.3,0.8,0.8      s-0.3,0.7-0.8,0.7s-0.8-0.3-0.8-0.7S61.8,48.1,62.2,48.1"/></g><g><path fill="#004A97" d="M45.3,21.1c0-3.2-1.3-6.1-3.5-8.4c-2.1-1.3-4.6-2.1-7.2-2.1h-5.8c-6.9,0-12.5,5.1-12.5,12.5    c0,3.1,1.2,5.9,3.1,8.1c2,1.4,4.4,2.4,7,2.8c-5.1-1.1-8.9-5.6-8.9-11.1c0-6.3,5.1-11.4,11.3-11.4c6.3,0,11.4,5.1,11.4,11.4    c0,6.2-4.9,11.2-11.1,11.3c0.2,0,0.3,0,0.5,0C38.2,34.3,45.3,28.4,45.3,21.1z"/></g><g><path fill="#006AC9" d="M28.7,10.6c-6.9,0-12.5,5.1-12.5,12.5c0,3,1.1,5.8,3,7.9c0.1,0.1,0.2,0.2,0.3,0.3c2,1.4,4.3,2.3,6.9,2.8    c-5.1-1.1-8.9-5.6-8.9-11.1c0-6.3,5.1-11.4,11.3-11.4c6.3,0,11.4,5.1,11.4,11.4c0,6.2-4.9,11.2-11.1,11.3c0.2,0,0.3,0,0.5,0    c0.5,0,1,0,1.5-0.1c6.6-1.6,10.8-8.3,9.6-15.4c-0.6-3.3-2.2-6.1-4.5-8.1c-0.5-0.1-1-0.1-1.5-0.1H28.7z"/></g></svg>