<?xml version="1.0" encoding="UTF-8" standalone="no"?>
<!DOCTYPE svg PUBLIC "-//W3C//DTD SVG 1.1//EN" "http://www.w3.org/Graphics/SVG/1.1/DTD/svg11.dtd">
<svg width="100%" height="100%" viewBox="0 0 512 512" version="1.1" xmlns="http://www.w3.org/2000/svg" xmlns:xlink="http://www.w3.org/1999/xlink" xml:space="preserve" xmlns:serif="http://www.serif.com/" style="fill-rule:evenodd;clip-rule:evenodd;stroke-linejoin:round;stroke-miterlimit:1.41421;">
    <g>
        <path d="M499.711,351.571L443.277,314.629L433.025,130.002C431.964,110.935 416.175,96 397.08,96L306.92,96C287.825,96 272.036,110.935 270.975,130.002L261.503,300.375L199.908,260.054C199.733,259.939 199.556,259.828 199.376,259.721C191.358,254.91 181.325,254.785 173.189,259.391C165.053,263.997 160,272.667 160,282.016L160,338.668L39.908,260.054C39.733,259.939 39.556,259.828 39.376,259.721C31.358,254.91 21.324,254.785 13.189,259.391C5.054,263.997 0,272.667 0,282.016L0,496C0,504.836 7.164,512 16,512L496,512C504.836,512 512,504.836 512,496L512,373.662C512,364.712 507.301,356.284 499.711,351.571ZM302.925,131.779C303.043,129.66 304.798,128 306.92,128L397.08,128C399.202,128 400.956,129.66 401.074,131.777L410.018,292.856L359.908,260.053C359.733,259.938 359.556,259.827 359.376,259.72C351.358,254.909 341.325,254.784 333.189,259.39C325.053,263.996 320,272.667 320,282.016L320,338.668L292.428,320.619L302.925,131.779ZM32,293.124L160,376.915L160,480L32,480L32,293.124ZM192,373.662L192,293.123L320,376.914L320,480L192,480L192,373.662ZM480,480L352,480L352,373.662L352,293.123L480,376.914L480,480Z" style="fill:white;fill-rule:nonzero;"/>
        <path d="M160,152L48,152C21.533,152 0,130.467 0,104C0,77.533 21.533,56 48,56L56,56L56,48C56,21.533 77.533,0 104,0C130.467,0 152,21.533 152,48L152,56L160,56C186.467,56 208,77.533 208,104C208,130.467 186.467,152 160,152ZM48,88C39.178,88 32,95.178 32,104C32,112.822 39.178,120 48,120L160,120C168.822,120 176,112.822 176,104C176,95.178 168.822,88 160,88L136,88C127.164,88 120,80.836 120,72L120,48C120,39.178 112.822,32 104,32C95.178,32 88,39.178 88,48L88,72C88,80.836 80.836,88 72,88L48,88Z" style="fill:white;fill-rule:nonzero;"/>
    </g>
</svg>
