<?xml version="1.0" encoding="UTF-8" standalone="no"?>
<!DOCTYPE svg PUBLIC "-//W3C//DTD SVG 1.1//EN" "http://www.w3.org/Graphics/SVG/1.1/DTD/svg11.dtd">
<svg width="100%" height="100%" viewBox="0 0 512 512" version="1.1" xmlns="http://www.w3.org/2000/svg" xmlns:xlink="http://www.w3.org/1999/xlink" xml:space="preserve" xmlns:serif="http://www.serif.com/" style="fill-rule:evenodd;clip-rule:evenodd;stroke-linejoin:round;stroke-miterlimit:1.41421;">
    <path d="M453.584,237.313C452.075,218.551 447.946,200.298 441.249,182.805L487.39,145.85L412.411,52.228L366.55,88.953C350.717,78.287 333.594,70.051 315.431,64.373L315.431,6.097L195.48,6.097L195.48,64.753C176.488,70.831 158.665,79.717 142.252,91.282L95.911,55.267L22.301,149.978L69.462,186.623C63.165,204.156 59.416,222.388 58.267,241.081L0,255.025L27.909,371.677L68.902,361.871C89.095,341.678 107.325,323.448 131.296,299.477C99.435,213.006 163.487,120.57 256.085,120.57C329.505,120.57 389.03,180.096 389.03,253.515C389.03,344.196 300.049,408.224 214.252,379.733C207.399,386.586 136.398,457.587 125.368,468.617L204.466,505.902L230.775,450.085C248.948,452.424 267.08,452.234 284.903,449.635L311.852,504.712L419.598,451.994L392.719,397.057C406.034,384.392 417.449,370.048 426.775,354.225L485.801,367.44L512,250.387L453.584,237.313Z" style="fill:white;fill-rule:nonzero;"/>
    <path d="M341.29,219.06L332.873,197.889L282.224,248.528L259.473,225.777L310.122,175.138L288.951,166.711C206.084,133.75 129.474,224.41 172.959,300.216C61.094,412.082 156.695,316.491 22.301,450.885L61.495,490.079C139.566,412.008 63.733,487.852 213.553,338.031C290.032,375.121 372.837,298.314 341.29,219.06Z" style="fill:white;fill-rule:nonzero;"/>
</svg>
