<?xml version="1.0" encoding="iso-8859-1"?>
<!-- Generator: Adobe Illustrator 19.0.0, SVG Export Plug-In . SVG Version: 6.00 Build 0)  -->
<svg version="1.1" id="Capa_1" xmlns="http://www.w3.org/2000/svg" xmlns:xlink="http://www.w3.org/1999/xlink" x="0px" y="0px"
	 viewBox="0 0 512.002 512.002" style="enable-background:new 0 0 512.002 512.002;" xml:space="preserve">
<g>
	<g>
		<path d="M510.66,331.614l-92.366-159.983c-2.762-4.783-8.877-6.423-13.66-3.66l-67.11,38.746c-2.297,1.326-3.973,3.51-4.659,6.072
			c-0.382,1.426-0.429,2.903-0.176,4.329h-13.356c-11.515,0-22.777,4.682-30.9,12.845l-17.47,17.559l-12.199-14.678
			c-8.307-9.995-20.525-15.727-33.521-15.727h-45.93c0.252-1.427,0.206-2.903-0.176-4.329c-0.687-2.562-2.362-4.746-4.659-6.072
			l-67.11-38.746c-4.784-2.761-10.899-1.123-13.66,3.66l-22.291,38.609c-2.762,4.783-1.123,10.899,3.66,13.66
			c4.783,2.762,10.9,1.124,13.66-3.66l17.291-29.949l49.79,28.746L73.45,361.7l-49.79-28.746l18.557-32.142
			c2.762-4.783,1.123-10.899-3.66-13.66c-4.781-2.761-10.898-1.123-13.66,3.66L1.34,331.614c-1.326,2.297-1.686,5.026-0.999,7.588
			s2.362,4.746,4.659,6.072l67.11,38.746c1.534,0.885,3.26,1.34,5,1.34c0.867,0,1.737-0.113,2.588-0.341
			c2.562-0.687,4.746-2.362,6.072-4.659l0.909-1.574l26.93,15.896c-0.037,6.761,2.301,13.56,7.104,19.027
			c4.684,5.331,10.925,8.5,17.455,9.428c0.073,6.836,2.559,13.35,7.119,18.539c4.56,5.189,10.7,8.494,17.469,9.445
			c0.08,6.594,2.42,13.191,7.104,18.521c4.688,5.335,10.935,8.506,17.47,9.431c0.076,6.599,2.417,13.203,7.104,18.538
			c5.648,6.428,13.562,9.714,21.513,9.714c6.53,0,13.085-2.216,18.431-6.729c0.144-0.113,0.285-0.231,0.423-0.354l15.921-14.097
			c1.074,1.643,2.33,3.202,3.772,4.644l12.728,12.728c5.654,5.653,13.08,8.48,20.506,8.48s14.853-2.827,20.506-8.48
			c5.136-5.136,7.931-11.736,8.401-18.469c6.733-0.47,13.333-3.265,18.469-8.401s7.931-11.736,8.401-18.469
			c6.733-0.47,13.333-3.265,18.469-8.401s7.931-11.736,8.401-18.469c6.733-0.47,13.333-3.265,18.469-8.401
			c8.381-8.381,10.543-20.657,6.499-31.054l26.975-18.267l3.912,6.775c1.326,2.297,3.51,3.973,6.072,4.659
			c0.852,0.228,1.722,0.341,2.588,0.341c1.74,0,3.467-0.455,5-1.34L507,345.275C511.783,342.513,513.422,336.397,510.66,331.614z
			 M294.092,489.374c-3.509,3.51-9.219,3.51-12.728,0l-12.728-12.728c-1.7-1.7-2.636-3.96-2.636-6.364
			c0-2.404,0.936-4.664,2.636-6.364s3.96-2.636,6.364-2.636c2.404,0,4.664,0.936,6.364,2.636l12.728,12.728
			C297.601,480.155,297.601,485.865,294.092,489.374z M320.962,462.504c-3.509,3.51-9.219,3.51-12.728,0l-12.728-12.728
			c-1.7-1.7-2.636-3.96-2.636-6.364c0-2.404,0.936-4.664,2.636-6.364s3.96-2.636,6.364-2.636c2.404,0,4.664,0.936,6.364,2.636
			l12.728,12.728C324.471,453.285,324.471,458.995,320.962,462.504z M347.832,435.633c-3.509,3.509-9.218,3.51-12.728,0
			l-12.728-12.728c-1.7-1.7-2.636-3.96-2.636-6.364c0-2.404,0.936-4.664,2.636-6.364s3.96-2.636,6.364-2.636
			c2.404,0,4.664,0.936,6.364,2.636l12.728,12.728C351.341,426.415,351.341,432.125,347.832,435.633z M374.702,408.763
			c-3.509,3.51-9.218,3.509-12.727,0l-12.728-12.728c-3.509-3.509-3.509-9.219,0-12.728c1.754-1.755,4.059-2.632,6.364-2.632
			c2.304,0,4.609,0.877,6.364,2.631l12.728,12.729C378.211,399.545,378.211,405.254,374.702,408.763z M383.004,376.054l-6.888-6.888
			c-11.308-11.307-29.706-11.306-41.012,0c-5.136,5.136-7.931,11.736-8.401,18.469c-6.733,0.47-13.333,3.265-18.469,8.401
			s-7.931,11.736-8.401,18.469c-6.733,0.47-13.333,3.265-18.469,8.401s-7.931,11.736-8.401,18.469
			c-6.733,0.47-13.333,3.265-18.469,8.401c-3.713,3.713-6.199,8.193-7.473,12.934l-25.149,22.267
			c-0.087,0.071-0.172,0.144-0.257,0.218c-3.567,3.134-9.021,2.783-12.157-0.786c-3.135-3.568-2.783-9.022,0.785-12.157
			c0.34-0.299,28.971-28.059,28.971-28.059c3.924-3.886,3.954-10.218,0.067-14.142c-3.886-3.924-10.218-3.955-14.142-0.067
			c0,0-25.896,25.678-26.062,25.869c-0.716,0.369-1.404,0.819-2.036,1.375c-3.567,3.135-9.021,2.783-12.157-0.787
			c-3.135-3.568-2.783-9.021,0.785-12.156c0.994-0.874,1.76-1.906,2.321-3.019l27.365-27.423c3.901-3.909,3.895-10.241-0.015-14.142
			c-3.908-3.901-10.24-3.895-14.142,0.015l-29.055,29.116c-0.472,0.473-0.883,0.982-1.241,1.517
			c-1.417,0.775-3.023,1.141-4.674,1.037c-2.296-0.148-4.397-1.183-5.917-2.912c-1.519-1.729-2.274-3.945-2.125-6.241
			c0.148-2.296,1.181-4.396,2.91-5.915c0.075-0.066,0.139-0.139,0.211-0.207c0.088-0.082,0.181-0.156,0.267-0.242l31.736-31.803
			c3.901-3.909,3.895-10.241-0.015-14.142c-3.909-3.901-10.241-3.895-14.142,0.015l-31.403,31.469
			c-3.569,3.003-8.918,2.621-12.013-0.901c-3.135-3.568-2.783-9.022,0.785-12.157c0.29-0.254,27.917-26.876,27.917-26.876
			c3.999-3.809,4.153-10.139,0.344-14.138c-3.81-4-10.14-4.154-14.138-0.344c0,0-29.15,28.065-29.767,28.755l-24.197-14.284
			l71.792-124.347h56.77c7.033,0,13.645,3.102,18.141,8.511l40.473,48.694c2.28,2.743,3.135,6.311,2.347,9.789
			c-0.788,3.479-3.099,6.33-6.338,7.822c-4.25,1.958-9.191,1.144-12.588-2.076l-43.397-41.121
			c-4.009-3.799-10.338-3.629-14.137,0.381c-3.799,4.009-3.628,10.338,0.381,14.137l2.8,2.653
			c-7.87,15.678-24.744,25.445-42.475,24.096l-0.212-0.016c-5.507-0.422-10.311,3.706-10.729,9.213
			c-0.419,5.507,3.706,10.311,9.213,10.729l0.215,0.016c1.586,0.121,3.164,0.18,4.738,0.18c22.037,0,42.631-11.618,54.203-30.05
			l25.645,24.3c5.979,5.665,13.69,8.629,21.536,8.629c4.446,0,8.936-0.953,13.174-2.905c8.933-4.114,15.304-11.975,17.478-21.567
			s-0.185-19.431-6.471-26.994l-15.432-18.567l18.806-18.902c4.396-4.418,10.491-6.952,16.722-6.952h24.197l68.764,119.102
			L383.004,376.054z M438.55,361.7l-82.367-142.663l49.79-28.746l82.366,142.663L438.55,361.7z"/>
	</g>
</g>
<g>
	<g>
		<path d="M61.469,247.471c-4.783-2.762-10.899-1.125-13.661,3.657l-0.65,1.126c-2.762,4.784-1.125,10.9,3.657,13.662
			c1.576,0.91,3.295,1.342,4.993,1.342c3.455,0,6.816-1.792,8.668-5l0.65-1.126C67.888,256.349,66.251,250.233,61.469,247.471z"/>
	</g>
</g>
<g>
	<g>
		<path d="M455.07,312.934c-1.86-1.86-4.44-2.93-7.07-2.93s-5.21,1.07-7.07,2.93c-1.86,1.86-2.93,4.44-2.93,7.07
			s1.07,5.21,2.93,7.07c1.86,1.859,4.44,2.93,7.07,2.93s5.21-1.07,7.07-2.93c1.86-1.86,2.93-4.44,2.93-7.07
			S456.93,314.794,455.07,312.934z"/>
	</g>
</g>
<g>
	<g>
		<path d="M71.07,312.933c-1.86-1.86-4.44-2.93-7.07-2.93c-2.63,0.001-5.21,1.07-7.07,2.93s-2.93,4.44-2.93,7.07
			s1.07,5.21,2.93,7.07s4.44,2.93,7.07,2.93c2.63,0,5.21-1.07,7.07-2.93s2.93-4.44,2.93-7.07S72.93,314.793,71.07,312.933z"/>
	</g>
</g>
<g>
	<g>
		<path d="M233.44,77.933c-1.86-1.86-4.44-2.92-7.08-2.92c-2.63,0-5.21,1.06-7.07,2.92c-1.86,1.86-2.92,4.44-2.92,7.08
			c0,2.63,1.06,5.21,2.92,7.07c1.86,1.86,4.44,2.93,7.07,2.93c2.64,0,5.21-1.07,7.08-2.93c1.86-1.86,2.93-4.44,2.93-7.07
			C236.37,82.373,235.3,79.803,233.44,77.933z"/>
	</g>
</g>
<g>
	<g>
		<path d="M295.28,77.933c-1.86-1.86-4.44-2.92-7.07-2.92c-2.64,0-5.21,1.06-7.08,2.92c-1.86,1.87-2.92,4.44-2.92,7.08
			c0,2.63,1.06,5.21,2.92,7.07c1.87,1.86,4.44,2.93,7.08,2.93c2.63,0,5.21-1.07,7.07-2.93c1.86-1.86,2.93-4.44,2.93-7.07
			C298.21,82.373,297.14,79.803,295.28,77.933z"/>
	</g>
</g>
<g>
	<g>
		<path d="M351.36,67.516c-1.833-5.21-7.542-7.947-12.752-6.114s-7.947,7.543-6.114,12.752c3.034,8.623,4.573,17.678,4.573,26.917
			c0,44.701-36.366,81.067-81.067,81.067s-81.067-36.367-81.067-81.067c0-44.7,36.366-81.067,81.067-81.067
			c8.75,0,17.354,1.384,25.571,4.112c5.243,1.742,10.902-1.097,12.642-6.338c1.741-5.242-1.097-10.901-6.338-12.642
			C277.621,1.73,266.896,0.004,256,0.004c-55.729,0-101.067,45.338-101.067,101.067c0,55.729,45.338,101.067,101.067,101.067
			s101.067-45.339,101.067-101.067C357.067,89.566,355.147,78.277,351.36,67.516z"/>
	</g>
</g>
<g>
	<g>
		<path d="M328.983,31.155c-0.268-0.28-0.539-0.559-0.811-0.837c-3.863-3.947-10.194-4.014-14.142-0.152
			c-3.947,3.863-4.015,10.194-0.152,14.142c0.222,0.226,0.442,0.453,0.661,0.681c1.964,2.051,4.591,3.083,7.223,3.083
			c2.487,0,4.978-0.922,6.916-2.778C332.666,41.474,332.803,35.144,328.983,31.155z"/>
	</g>
</g>
<g>
	<g>
		<path d="M283.637,121.152c-3.905-3.905-10.237-3.905-14.143,0c-6.73,6.732-17.685,6.733-24.417,0
			c-3.905-3.905-10.237-3.905-14.143,0c-3.905,3.905-3.905,10.237,0,14.143c7.265,7.264,16.808,10.897,26.352,10.897
			c9.543,0,19.086-3.633,26.351-10.897C287.542,131.39,287.542,125.058,283.637,121.152z"/>
	</g>
</g>
<g>
	<g>
		<path d="M441.169,40.004h-6.859c-5.523,0-10,4.477-10,10s4.477,10,10,10h6.859c5.523,0,10-4.477,10-10
			S446.692,40.004,441.169,40.004z"/>
	</g>
</g>
<g>
	<g>
		<path d="M489.69,40.004h-6.859c-5.523,0-10,4.477-10,10s4.477,10,10,10h6.859c5.523,0,10-4.477,10-10
			S495.213,40.004,489.69,40.004z"/>
	</g>
</g>
<g>
	<g>
		<path d="M462,60.834c-5.523,0-10,4.477-10,10v6.859c0,5.523,4.477,10,10,10s10-4.477,10-10v-6.859
			C472,65.311,467.523,60.834,462,60.834z"/>
	</g>
</g>
<g>
	<g>
		<path d="M462,12.314c-5.523,0-10,4.477-10,10v6.859c0,5.523,4.477,10,10,10s10-4.477,10-10v-6.859
			C472,16.791,467.523,12.314,462,12.314z"/>
	</g>
</g>
<g>
	<g>
		<path d="M16.859,118.211H10c-5.523,0-10,4.477-10,10c0,5.523,4.477,10,10,10h6.859c5.523,0,10-4.477,10-10
			C26.859,122.688,22.382,118.211,16.859,118.211z"/>
	</g>
</g>
<g>
	<g>
		<path d="M65.38,118.211h-6.859c-5.523,0-10,4.477-10,10c0,5.523,4.477,10,10,10h6.859c5.523,0,10-4.477,10-10
			C75.38,122.688,70.903,118.211,65.38,118.211z"/>
	</g>
</g>
<g>
	<g>
		<path d="M37.69,139.041c-5.523,0-10,4.477-10,10v6.859c0,5.523,4.477,10,10,10s10-4.477,10-10v-6.859
			C47.69,143.518,43.213,139.041,37.69,139.041z"/>
	</g>
</g>
<g>
	<g>
		<path d="M37.69,90.521c-5.523,0-10,4.477-10,10v6.859c0,5.523,4.477,10,10,10s10-4.477,10-10v-6.859
			C47.69,94.998,43.213,90.521,37.69,90.521z"/>
	</g>
</g>
<g>
</g>
<g>
</g>
<g>
</g>
<g>
</g>
<g>
</g>
<g>
</g>
<g>
</g>
<g>
</g>
<g>
</g>
<g>
</g>
<g>
</g>
<g>
</g>
<g>
</g>
<g>
</g>
<g>
</g>
</svg>
