<svg id="_x33_0" enable-background="new 0 0 64 64" height="512" viewBox="0 0 64 64" width="512" xmlns="http://www.w3.org/2000/svg"><path d="m60 57h-10c-.551 0-1-.448-1-1s.449-1 1-1h8c1.654 0 3-1.346 3-3s-1.346-3-3-3h-2c-.551 0-1-.448-1-1s.449-1 1-1h4c1.654 0 3-1.346 3-3s-1.346-3-3-3h-9v-2c1.103 0 2-.897 2-2v-2c0-1.103-.897-2-2-2v-2c1.103 0 2-.897 2-2v-4.126c0-.893.394-1.733 1.08-2.305l.639-.534c2.721-2.267 4.281-5.597 4.281-9.139 0-6.559-5.337-11.896-11.896-11.896h-6.207c-6.56 0-11.897 5.337-11.897 11.896 0 3.541 1.56 6.872 4.28 9.139l.64.534c.686.572 1.08 1.411 1.08 2.305v.642c-2.371-1.876-5.093-3.185-8-3.894v-4.622h-2.639c-.48 0-.905-.307-1.128-.842-.207-.494-.123-1.031.216-1.367l1.867-1.859-4.248-4.248-1.858 1.867c-.337.337-.873.423-1.41.198-.493-.205-.8-.629-.8-1.11v-2.639h-6v2.639c0 .48-.307.905-.842 1.128-.494.207-1.032.122-1.367-.216l-1.859-1.867-4.248 4.248 1.867 1.858c.338.337.423.874.198 1.41-.205.493-.629.8-1.11.8h-2.639v6h2.639c.48 0 .905.307 1.128.842.207.494.123 1.031-.216 1.367l-1.867 1.859 2.46 2.46c-2.591 3.493-4.144 7.799-4.144 12.472 0 11.579 9.42 21 21 21 9.671 0 18.101-6.685 20.38-16h5.62c1.654 0 3-1.346 3-3v-1h9c.551 0 1 .448 1 1s-.449 1-1 1h-4c-1.654 0-3 1.346-3 3s1.346 3 3 3h2c.551 0 1 .448 1 1s-.449 1-1 1h-8c-1.654 0-3 1.346-3 3s1.346 3 3 3h10c.551 0 1 .448 1 1s-.449 1-1 1h-21v2h21c1.654 0 3-1.346 3-3s-1.346-3-3-3zm-11-16h-2v-2h2zm-9 4c-.551 0-1-.448-1-1v-1h2v2zm1-6v2h-2v-2zm2 4h2v2h-2zm0-2v-2h2v2zm8.001-4h-14.001v-2h14zm-12.007-20.172c-1.329-.473-2.14-1.79-1.971-3.201.154-1.296 1.197-2.384 2.479-2.587.141-.023.28-.029.419-.033-.348.451-.631.959-.819 1.522l-.051.154 1.897.633.052-.154c.431-1.293 1.637-2.162 3-2.162s2.569.869 3 2.163l.051.154 1.897-.633-.051-.153c-.188-.563-.47-1.072-.819-1.523.139.004.279.01.42.033 1.282.204 2.325 1.292 2.479 2.587.168 1.411-.642 2.727-1.97 3.2-1.219.433-2.007 1.506-2.007 2.735v9.437h-2v-10h-2v10.001h-2v-9.438c0-1.229-.788-2.302-2.006-2.735zm4.006 14.172v2h-4v-2zm6 2h-4v-2h4zm-14.439-12.501c-2.263-1.886-3.561-4.657-3.561-7.603 0-5.457 4.439-9.896 9.896-9.896h6.207c5.458 0 9.897 4.439 9.897 9.896 0 2.945-1.298 5.716-3.562 7.603l-.639.533c-1.143.953-1.799 2.353-1.799 3.842v4.126h-2v-9.437c0-.371.266-.705.678-.852 2.214-.789 3.565-2.977 3.286-5.321-.258-2.166-2.004-3.985-4.151-4.326-.969-.152-1.921-.017-2.794.362-.627-.267-1.306-.426-2.019-.426-.712 0-1.392.159-2.018.426-.872-.38-1.823-.514-2.794-.361-2.147.34-3.894 2.16-4.152 4.326-.279 2.344 1.072 4.532 3.287 5.321.411.146.677.48.677.851v9.438h-2v-4.128c0-1.488-.656-2.889-1.799-3.841zm2.439 10.501v2c-1.103 0-2 .897-2 2v2c0 1.103.897 2 2 2v4h-.764c-.998 0-1.895-.555-2.341-1.447-.788-1.574-2.371-2.553-4.131-2.553h-2.326c-.241 0-.438-.196-.438-.438 0-1.379-.935-2.576-2.273-2.911l-1.217-.303c-.3-.075-.51-.345-.51-.654 0-.181.07-.35.197-.477l.924-.924c.189-.189.441-.293.708-.293h.189c2.195 0 3.982-1.787 3.982-3.982 0-.814.488-1.536 1.244-1.838l2.355-.942c.845.57 1.645 1.217 2.4 1.927v.835c.001 1.103.898 2 2.001 2zm-31.484-3.929.446-.444c.918-.914 1.172-2.311.634-3.592-.511-1.236-1.672-2.035-2.957-2.035h-.639v-2h.639c1.285 0 2.446-.799 2.972-2.068.524-1.248.27-2.645-.648-3.56l-.446-.444 1.413-1.413.444.446c.915.918 2.311 1.172 3.592.634 1.235-.51 2.034-1.671 2.034-2.956v-.639h2v.639c0 1.285.799 2.446 2.068 2.972 1.249.525 2.645.27 3.56-.648l.444-.446 1.413 1.413-.446.444c-.918.914-1.172 2.311-.634 3.592.51 1.235 1.671 2.034 2.956 2.034h.639v2.237c-.988-.141-1.986-.237-3-.237-.366 0-.724.036-1.086.055.053-.348.086-.699.086-1.055 0-3.86-3.14-7-7-7s-7 3.14-7 7c0 2.032.897 3.931 2.391 5.246-1.078.813-2.072 1.725-2.974 2.726zm8.484-6.071c-.551 0-1-.449-1-1s.449-1 1-1 1 .449 1 1-.449 1-1 1zm0-4c-1.654 0-3 1.346-3 3 0 1.413.985 2.593 2.302 2.91-.754.345-1.481.736-2.185 1.165-1.315-.933-2.117-2.447-2.117-4.075 0-2.757 2.243-5 5-5s5 2.243 5 5c0 .434-.074.855-.183 1.268-.822.126-1.628.295-2.417.513.372-.5.6-1.112.6-1.781 0-1.654-1.346-3-3-3zm-3.062 9.583 1.812 2.417c.161.215.25.481.25.75 0 .689-.561 1.25-1.25 1.25h-.336c-1.179 0-2.288.459-3.122 1.293-.833.834-1.292 1.942-1.292 3.166 0 .981-.703 1.812-1.671 1.973l-1.829.304c1.052-4.565 3.75-8.498 7.438-11.153zm-7.677 18.417h.529c.595 0 1.17.174 1.664.504l1.289.859c1.466.977 3.536.772 4.782-.474l2.562-2.562c.211-.211.492-.327.792-.327.618 0 1.121.503 1.121 1.121 0 .295-.12.584-.328.793l-1.318 1.318c-.861.86-1.354 2.051-1.354 3.268s.493 2.408 1.354 3.268c.417.417.646.971.646 1.56 0 .811-.316 1.573-.889 2.146l-1.824 1.825c-4.731-2.83-8.124-7.647-9.026-13.299zm20.093 15.94-1.785-1.785c-.361-.361-.569-.862-.569-1.374 0-.589.399-1.1.97-1.243 1.784-.445 3.03-2.042 3.03-3.881v-2.415c0-.526.213-1.042.586-1.414l1.27-1.27c.355-.354.846-.558 1.348-.558.727 0 1.38.403 1.705 1.054l.368.735c.681 1.363 2.052 2.211 3.577 2.211h4.863c-3.042 5.624-8.81 9.47-15.363 9.94zm16.314-11.94h-5.814c-.762 0-1.448-.424-1.789-1.105l-.368-.735c-.665-1.333-2.004-2.16-3.493-2.16-1.043 0-2.024.406-2.762 1.145l-1.27 1.27c-.745.743-1.172 1.773-1.172 2.827v2.415c0 .92-.623 1.718-1.515 1.941-1.463.366-2.485 1.675-2.485 3.183 0 1.038.421 2.055 1.155 2.788l.355.355c-2.259-.177-4.403-.748-6.373-1.649l1.387-1.387c.952-.95 1.476-2.215 1.476-3.56 0-1.124-.438-2.18-1.232-2.975-.488-.487-.768-1.163-.768-1.853s.28-1.366.768-1.854l1.318-1.318c.581-.581.914-1.385.914-2.207 0-1.721-1.4-3.121-3.121-3.121-.834 0-1.618.324-2.207.914l-2.563 2.562c-.587.589-1.564.688-2.257.224l-1.289-.86c-.824-.55-1.783-.84-2.774-.84h-.738c-.018-.333-.051-.662-.051-1 0-.737.052-1.46.134-2.175l2.523-.421c1.937-.323 3.343-1.982 3.343-3.99 0-.645.251-1.251.707-1.707.449-.449 1.072-.707 1.707-.707h.336c1.792 0 3.25-1.458 3.25-3.25 0-.699-.231-1.392-.65-1.95l-1.727-2.303c2.77-1.581 5.966-2.497 9.377-2.497 2.958 0 5.812.69 8.394 1.965l-.893.357c-1.519.608-2.501 2.059-2.501 3.696 0 1.093-.889 1.982-1.982 1.982h-.189c-.801 0-1.555.312-2.122.879l-.923.923c-.506.505-.784 1.177-.784 1.891 0 1.229.833 2.296 2.025 2.595l1.217.303c.446.112.758.511.758.971 0 1.344 1.094 2.438 2.438 2.438h2.326c.998 0 1.895.555 2.341 1.447.788 1.574 2.37 2.553 4.13 2.553h.948c.414 1.161 1.514 2 2.816 2h.321c-.185.682-.395 1.353-.652 2zm9.332-5c0 .552-.449 1-1 1h-1v-2h2z"/></svg>