<?xml version="1.0" encoding="UTF-8" standalone="no"?>
<!DOCTYPE svg PUBLIC "-//W3C//DTD SVG 1.1//EN" "http://www.w3.org/Graphics/SVG/1.1/DTD/svg11.dtd">
<svg width="100%" height="100%" viewBox="0 0 512 512" version="1.1" xmlns="http://www.w3.org/2000/svg" xmlns:xlink="http://www.w3.org/1999/xlink" xml:space="preserve" xmlns:serif="http://www.serif.com/" style="fill-rule:evenodd;clip-rule:evenodd;stroke-linejoin:round;stroke-miterlimit:1.41421;">
    <path d="M457.489,171.693C467.452,159.853 473.471,144.589 473.471,127.94C473.471,90.411 442.939,59.879 405.409,59.879C367.881,59.879 337.348,90.411 337.348,127.94C337.348,128.337 337.371,128.729 337.378,129.124C329.633,124.444 320.581,121.746 310.912,121.746L297.718,121.746C313.706,109.281 324.018,89.858 324.018,68.061C324.02,30.532 293.487,0 255.959,0C218.43,0 187.898,30.532 187.898,68.061C187.898,89.858 198.21,109.281 214.198,121.746L201.004,121.746C191.37,121.746 182.348,124.426 174.622,129.076C174.628,128.696 174.651,128.321 174.651,127.94C174.651,90.411 144.119,59.879 106.59,59.879C69.061,59.879 38.53,90.411 38.53,127.939C38.53,144.588 44.548,159.852 54.512,171.692C28.694,172.701 8,193.856 8,219.73L8,328.914C8,347.444 18.619,363.548 34.126,371.574L47.918,498.619C48.745,506.232 55.173,512 62.831,512L150.35,512C158.008,512 164.436,506.232 165.262,498.619L179.057,371.552C180.327,370.895 181.567,370.185 182.772,369.421L197.292,498.674C198.145,506.263 204.562,512 212.198,512L299.717,512C307.355,512 313.773,506.262 314.623,498.672L329.133,369.302C330.367,370.092 331.635,370.829 332.937,371.507L346.737,498.62C347.563,506.233 353.992,512.001 361.649,512.001L449.169,512.001C456.826,512.001 463.255,506.233 464.081,498.62L477.873,371.576C493.38,363.55 503.999,347.446 503.999,328.916L503.999,219.73C504,193.856 483.306,172.7 457.489,171.693ZM255.959,30C276.945,30 294.02,47.074 294.02,68.061C294.02,89.048 276.946,106.122 255.959,106.122C234.972,106.122 217.898,89.048 217.898,68.061C217.898,47.074 234.972,30 255.959,30ZM474,219.73L474,328.914C474,338.887 465.729,347 455.564,347L355.254,347C349.04,347 343.376,343.867 340.009,339.023C353.605,329.639 362.547,313.881 362.547,296.053L362.547,201.643L455.563,201.643C465.729,201.644 474,209.757 474,219.73ZM405.409,89.878C426.396,89.878 443.471,106.952 443.471,127.939C443.471,148.926 426.396,166 405.409,166C384.423,166 367.348,148.926 367.348,127.939C367.348,106.952 384.423,89.878 405.409,89.878ZM266.373,206.882L255.959,220.377L245.544,206.882L255.959,180.262L266.373,206.882ZM179.369,173.794C179.369,161.636 189.075,151.746 201.005,151.746L234.902,151.746L214.514,203.86C212.595,208.766 213.389,214.318 216.608,218.489L244.085,254.094C246.925,257.775 251.311,259.93 255.96,259.93C260.608,259.93 264.995,257.774 267.835,254.094L295.312,218.489C298.531,214.319 299.326,208.766 297.406,203.86L277.018,151.746L310.915,151.746C322.845,151.746 332.551,161.637 332.551,173.794L332.551,296.054C332.551,308.212 322.845,318.102 310.915,318.102L201.004,318.102C189.074,318.102 179.368,308.211 179.368,296.054L179.368,173.794L179.369,173.794ZM106.59,89.878C127.577,89.878 144.651,106.952 144.651,127.939C144.651,148.926 127.577,166 106.59,166C85.603,166 68.53,148.926 68.53,127.939C68.53,106.952 85.604,89.878 106.59,89.878ZM38,219.73C38,209.757 46.271,201.644 56.436,201.644L149.369,201.644L149.369,296.054C149.369,313.909 158.338,329.69 171.97,339.069C168.582,343.939 162.92,347.001 156.745,347.001L56.436,347.001C46.271,347 38,338.887 38,328.914L38,219.73ZM76.29,482L64.891,377L148.29,377L136.89,482L76.29,482ZM286.307,482L225.609,482L210.567,348.102L301.325,348.102L286.307,482ZM375.11,482L363.711,377L447.109,377L435.71,482L375.11,482Z" style="fill:rgb(22,42,98);fill-rule:nonzero;"/>
</svg>
