<?xml version="1.0" encoding="UTF-8" standalone="no"?>
<!DOCTYPE svg PUBLIC "-//W3C//DTD SVG 1.1//EN" "http://www.w3.org/Graphics/SVG/1.1/DTD/svg11.dtd">
<svg width="100%" height="100%" viewBox="0 0 440 440" version="1.1" xmlns="http://www.w3.org/2000/svg" xmlns:xlink="http://www.w3.org/1999/xlink" xml:space="preserve" xmlns:serif="http://www.serif.com/" style="fill-rule:evenodd;clip-rule:evenodd;stroke-linejoin:round;stroke-miterlimit:1.41421;">
    <path d="M220.001,89.377C147.6,89.377 88.777,148.297 88.777,220.601C88.777,292.901 147.697,351.82 220.001,351.82C292.301,351.82 351.22,292.901 351.22,220.601C351.22,148.297 292.402,89.377 220.001,89.377ZM285.809,189.144L206.617,263.839C205.154,265.274 203.176,266.066 201.124,266.039C198.979,266.058 196.919,265.192 195.433,263.64L153.989,221.1C150.954,217.948 151.021,212.935 154.145,209.869C157.266,206.803 162.275,206.823 165.376,209.912L201.327,246.862L274.824,177.558C278.023,174.523 283.075,174.659 286.11,177.858C289.145,181.057 289.008,186.109 285.809,189.144Z" style="fill:white;fill-rule:nonzero;"/>
    <path d="M408.443,268.434L440.002,220.601L408.443,172.764C407.519,171.344 407.062,169.666 407.144,167.969L410.339,110.649L359.311,84.786C357.801,84.025 356.576,82.8 355.816,81.291L330.05,30.259L272.73,33.454C271.033,33.536 269.355,33.083 267.935,32.155L220.001,0.6L172.164,32.155C170.744,33.083 169.066,33.536 167.373,33.454L110.049,30.259L84.186,81.291C83.425,82.8 82.2,84.025 80.691,84.786L29.659,110.548L32.854,167.872C32.936,169.565 32.483,171.242 31.559,172.666L0,220.601L31.559,268.434C32.483,269.858 32.936,271.531 32.854,273.228L29.659,330.548L80.691,356.314C82.2,357.075 83.425,358.3 84.186,359.809L109.952,410.841L167.272,407.643L167.67,407.643C169.226,407.662 170.752,408.111 172.066,408.942L219.899,440.5L267.736,408.942C269.156,408.017 270.834,407.565 272.527,407.643L329.851,410.841L355.617,359.809C356.377,358.3 357.602,357.075 359.112,356.314L410.14,330.548L406.945,273.228C407.031,271.527 407.546,269.877 408.443,268.434ZM220.001,367.798C138.811,367.798 72.799,301.787 72.799,220.601C72.799,139.411 138.811,73.399 220.001,73.399C301.191,73.399 367.198,139.411 367.198,220.601C367.198,301.787 301.191,367.798 220.001,367.798Z" style="fill:white;fill-rule:nonzero;"/>
</svg>
