<?xml version="1.0" encoding="UTF-8"?>
<svg width="150px" height="36px" viewBox="0 0 115 28" version="1.1" xmlns="http://www.w3.org/2000/svg" xmlns:xlink="http://www.w3.org/1999/xlink">
    <!-- Generator: Sketch 64 (93537) - https://sketch.com -->
    <title>PP_logo</title>
    <desc>Created with Sketch.</desc>
    <defs>
        <polygon id="path-1" points="114.38961 27.9371425 114.38961 0.231680747 0.0169610991 0.231680747 0.0169610991 27.9371425"></polygon>
    </defs>
    <g id="Page-1" stroke="none" stroke-width="1" fill="none" fill-rule="evenodd">
        <g id="FINAL" transform="translate(-46.000000, -113.000000)">
            <g id="PP" transform="translate(46.000000, 113.000000)">
                <g>
                    <path d="M110.77181,6.43100993 L108.006944,22.4105588 C107.953354,22.7202699 108.216761,23 108.561613,23 L111.342525,23 C111.803033,23 112.195116,22.695515 112.266872,22.2823836 L114.992983,6.58971621 C115.046876,6.28000518 114.783469,6 114.438315,6 L111.326478,6 C111.050052,6 110.814803,6.18291104 110.77181,6.43100993" id="Fill-7" fill="#009CDE"></path>
                    <path d="M103.204002,18.0366531 C102.908544,19.7271381 101.521127,20.8619956 99.7512519,20.8619956 C98.8637302,20.8619956 98.1536553,20.5859867 97.69683,20.0634024 C97.2443116,19.545261 97.074043,18.807201 97.2176084,17.9852832 C97.492967,16.3100703 98.90278,15.1385598 100.645952,15.1385598 C101.514523,15.1385598 102.220004,15.4173454 102.685443,15.9446501 C103.154041,16.4758423 103.338092,17.2189004 103.204002,18.0366531 L103.204002,18.0366531 Z M107.467322,12.278508 L104.408229,12.278508 C104.146078,12.278508 103.922977,12.4626064 103.882205,12.7133469 L103.74754,13.5405405 L103.533915,13.2406516 C102.871217,12.3107183 101.394789,12 99.920372,12 C96.5408408,12 93.653452,14.4768604 93.0915368,17.9508515 C92.7992375,19.6838208 93.2144288,21.3398741 94.2302981,22.4958349 C95.1640479,23.5579415 96.4960484,24 98.0833082,24 C100.807607,24 102.31849,22.3075713 102.31849,22.3075713 L102.182102,23.1297668 C102.130706,23.4424287 102.38051,23.7253795 102.708126,23.7253795 L105.462861,23.7253795 C105.899587,23.7253795 106.271421,23.418271 106.339759,23.0009256 L107.993346,12.8735653 C108.044455,12.5609034 107.794651,12.278508 107.467322,12.278508 L107.467322,12.278508 Z" id="Fill-4" fill="#009CDE"></path>
                    <path d="M88.2935016,11.7313044 C87.9542183,13.9281623 86.2522216,13.9281623 84.6060281,13.9281623 L83.6693719,13.9281623 L84.3264542,9.82655406 C84.3660745,9.57873022 84.5828698,9.39609423 84.8376113,9.39609423 L85.2670167,9.39609423 C86.3872653,9.39609423 87.4458514,9.39609423 87.9916064,10.0254182 C88.318055,10.4019674 88.4168266,10.9600524 88.2935016,11.7313044 L88.2935016,11.7313044 Z M87.5769889,6 L81.3686072,6 C80.9442241,6 80.5828986,6.304485 80.5167718,6.71789147 L78.0064662,22.4105588 C77.9568014,22.7199948 78.1995452,23 78.5176233,23 L81.7028682,23 C82.0000201,23 82.2530875,22.786833 82.2991251,22.497476 L83.0111735,18.0487493 C83.0773003,17.6353428 83.4386258,17.3308578 83.8630089,17.3308578 L85.8275595,17.3308578 C89.9168158,17.3308578 92.2767318,15.3798984 92.8936359,11.5134615 C93.1712567,9.82242824 92.9047965,8.49364139 92.1015099,7.56340808 C91.2187037,6.54075656 89.6539829,6 87.5769889,6 L87.5769889,6 Z" id="Fill-1" fill="#009CDE"></path>
                    <path d="M78.4587726,12 L75.3397573,12 C75.0415155,12 74.7624963,12.1460767 74.5950265,12.3896337 L70.2926552,18.645915 L68.4691279,12.6340534 C68.3552484,12.2579347 68.0045813,12 67.6067313,12 L64.5407239,12 C64.1705429,12 63.9098725,12.3594407 64.0292858,12.7053664 L67.4637267,22.6581359 L64.2334533,27.1583336 C63.979773,27.5114482 64.2357833,28 64.6741172,28 L67.79022,28 C68.0855493,28 68.3619472,27.8570864 68.5302907,27.6172675 L78.9029315,12.8373531 C79.1510781,12.4836634 78.8947765,12 78.4587726,12" id="Fill-5" fill="#003087"></path>
                    <path d="M58.2040472,18.0366531 C57.9085923,19.7271381 56.5209016,20.8619956 54.7510434,20.8619956 C53.8638172,20.8619956 53.153462,20.5859867 52.6969281,20.0634024 C52.2444141,19.545261 52.074147,18.807201 52.217424,17.9852832 C52.4930671,16.3100703 53.9028666,15.1385598 55.6457349,15.1385598 C56.5145848,15.1385598 57.2197717,15.4173454 57.6854937,15.9446501 C58.1540869,16.4758423 58.3381361,17.2189004 58.2040472,18.0366531 L58.2040472,18.0366531 Z M62.4673269,12.278508 L59.4082629,12.278508 C59.1461149,12.278508 58.9230162,12.4626064 58.882244,12.7133469 L58.7475809,13.5405405 L58.5336704,13.2406516 C57.8712656,12.3107183 56.3948524,12 54.920449,12 C51.5406628,12 48.6535887,14.4768604 48.0916788,17.9508515 C47.7990951,19.6838208 48.2142825,21.3398741 49.2304293,22.4958349 C50.1638831,23.5579415 51.496158,24 53.0834027,24 C55.8076752,24 57.3185438,22.3075713 57.3185438,22.3075713 L57.1818708,23.1297668 C57.130762,23.4424287 57.3805635,23.7253795 57.7078897,23.7253795 L60.4628848,23.7253795 C60.8996068,23.7253795 61.2714379,23.418271 61.3394873,23.0009256 L62.9933458,12.8735653 C63.0444546,12.5609034 62.794653,12.278508 62.4673269,12.278508 L62.4673269,12.278508 Z" id="Fill-3" fill="#003087"></path>
                    <path d="M44.2932891,11.7313044 C43.9540107,13.9281623 42.252038,13.9281623 40.6061468,13.9281623 L39.6695039,13.9281623 L40.3262979,9.82655406 C40.3661966,9.57873022 40.5829888,9.39609423 40.8374477,9.39609423 L41.266847,9.39609423 C42.3873588,9.39609423 43.44593,9.39609423 43.9913983,10.0254182 C44.3181212,10.4019674 44.4168914,10.9600524 44.2932891,11.7313044 L44.2932891,11.7313044 Z M43.5770656,6 L37.3687717,6 C36.9443946,6 36.5830742,6.304485 36.5169484,6.71789147 L34.0063993,22.4105588 C33.9570142,22.7199948 34.1997545,23 34.5175491,23 L37.4817715,23 C37.9061486,23 38.2677481,22.695515 38.3338739,22.2823836 L39.0113148,18.0487493 C39.0771616,17.6353428 39.438761,17.3308578 39.8631381,17.3308578 L41.8276609,17.3308578 C45.9165804,17.3308578 48.2767421,15.3798984 48.8936374,11.5134615 C49.1712542,9.82242824 48.9047979,8.49364139 48.1015226,7.56340808 C47.2184499,6.54075656 45.6537512,6 43.5770656,6 L43.5770656,6 Z" id="Fill-2" fill="#003087"></path>
                    <g id="Monogram">
                        <mask id="mask-2" fill="white">
                            <use xlink:href="#path-1"></use>
                        </mask>
                        <g id="Clip-6"></g>
                        <path d="M21.1960028,7.27042969 C21.5346595,5.11531901 21.1937414,3.64876013 20.0259697,2.32047599 C18.7403184,0.858150004 16.4177785,0.231680747 13.446194,0.231680747 L4.82006167,0.231680747 C4.21285433,0.231680747 3.69582349,0.672748967 3.60112402,1.27156327 L0.0093286045,24.0087288 C-0.0616253267,24.4574162 0.28579452,24.8629281 0.74063466,24.8629281 L6.0658544,24.8629281 L5.69836392,27.1896123 C5.63645591,27.5821433 5.94005958,27.9371425 6.33808004,27.9371425 L10.8265522,27.9371425 C11.358,27.9371425 11.810296,27.551102 11.8931227,27.0273511 L11.9372215,26.7996211 L12.7827323,21.4469775 L12.8372905,21.1512388 C12.9201172,20.6272057 13.3724132,20.2414474 13.9035783,20.2414474 L14.5749551,20.2414474 C18.9234982,20.2414474 22.3284389,18.4777389 23.3232074,13.3773762 C23.739037,11.2462519 23.5241964,9.46730499 22.4248345,8.21662402 C22.0921142,7.83848492 21.6785461,7.52553249 21.1960028,7.27042969" id="Fill-8" fill="#009CDE" mask="url(#mask-2)"></path>
                        <path d="M21.1960028,7.27042969 C21.5346595,5.11531901 21.1937414,3.64876013 20.0259697,2.32047599 C18.7403184,0.858150004 16.4177785,0.231680747 13.446194,0.231680747 L4.82006167,0.231680747 C4.21285433,0.231680747 3.69582349,0.672748967 3.60112402,1.27156327 L0.0093286045,24.0087288 C-0.0616253267,24.4574162 0.28579452,24.8629281 0.74063466,24.8629281 L6.0658544,24.8629281 L7.40351975,16.3954341 L7.36196506,16.6609781 C7.45666453,16.0621638 7.96945509,15.6208134 8.57666244,15.6208134 L11.1078238,15.6208134 C16.0785566,15.6208134 19.9705634,13.604824 21.1078051,7.77470922 C21.1414446,7.60228908 21.1702785,7.43494842 21.1960028,7.27042969" id="Fill-9" fill="#012169" mask="url(#mask-2)"></path>
                        <path d="M8.84040753,7.29921342 C8.89750989,6.9388525 9.1290289,6.64396044 9.44083044,6.49468015 C9.5827383,6.42695374 9.74104189,6.38913983 9.90697797,6.38913983 L16.6685201,6.38913983 C17.4696494,6.38913983 18.2165031,6.4416278 18.8991873,6.55140101 C19.0945227,6.58272448 19.2842043,6.61884523 19.4687976,6.65976326 C19.6531082,6.70039911 19.8323305,6.74611443 20.0056164,6.79690924 C20.0924007,6.82202445 20.1774888,6.84855062 20.2614463,6.87648776 C20.5967107,6.98738975 20.9087949,7.11860967 21.1960028,7.27042969 C21.5346595,5.11531901 21.1937414,3.64876013 20.0259697,2.32047599 C18.7403184,0.858150004 16.4177785,0.231680747 13.446194,0.231680747 L4.82006167,0.231680747 C4.21285433,0.231680747 3.69582349,0.672748967 3.60112402,1.27156327 L0.0093286045,24.0087288 C-0.0616253267,24.4574162 0.28579452,24.8629281 0.74063466,24.8629281 L6.0658544,24.8629281 L8.84040753,7.29921342" id="Fill-10" fill="#003087" mask="url(#mask-2)"></path>
                    </g>
                </g>
            </g>
        </g>
    </g>
</svg>
