<?xml version="1.0" encoding="UTF-8" standalone="no"?>
<!DOCTYPE svg PUBLIC "-//W3C//DTD SVG 1.1//EN" "http://www.w3.org/Graphics/SVG/1.1/DTD/svg11.dtd">
<svg width="100%" height="100%" viewBox="0 0 512 512" version="1.1" xmlns="http://www.w3.org/2000/svg" xmlns:xlink="http://www.w3.org/1999/xlink" xml:space="preserve" xmlns:serif="http://www.serif.com/" style="fill-rule:evenodd;clip-rule:evenodd;stroke-linejoin:round;stroke-miterlimit:1.41421;">
    <g>
        <path d="M160,358.624C160,341.888 153.488,326.16 141.656,314.344L136,308.688L130.344,314.344C118.512,326.168 112,341.888 112,358.624L112,419.056C107.08,424.68 104,431.952 104,440C104,457.648 118.352,472 136,472C153.648,472 168,457.648 168,440C168,431.96 164.92,424.688 160,419.056L160,358.624ZM136,332.488C141.2,340.144 144,349.168 144,358.632L144,409.144C141.424,408.464 138.776,408 136,408C133.224,408 130.576,408.464 128,409.136L128,358.624C128,349.168 130.8,340.144 136,332.488ZM136,456C127.176,456 120,448.824 120,440C120,431.176 127.176,424 136,424C144.824,424 152,431.176 152,440C152,448.824 144.824,456 136,456Z" style="fill:rgb(0,4,109);fill-rule:nonzero;"/>
        <path d="M491.32,357.696L456,344.456L456,152L392,152L392,336L360,336L360,240L296,240L296,336L264,336L264,192L200,192L200,265.32C190.088,259.568 179.352,255.152 168,252.216L168,152L104,152L104,252.216C48.888,266.48 8,316.488 8,376C8,446.576 65.424,504 136,504C192.6,504 240.664,467.032 257.512,416L433.448,416L491.32,394.296C498.904,391.448 504,384.096 504,376C504,367.904 498.904,360.552 491.32,357.696ZM296,352L424,352L424,368L296,368L296,352ZM296,384L424,384L424,400L296,400L296,384ZM408,168L440,168L440,338.456L433.448,336L408,336L408,168ZM312,256L344,256L344,336L312,336L312,256ZM50.752,332.024L35.976,325.904C40.184,317.536 45.376,309.776 51.464,302.76L62.8,314.096C58.144,319.592 54.088,325.584 50.752,332.024ZM44.64,346.816C42.472,353.592 40.944,360.664 40.336,368L24.408,368C25.08,358.512 26.904,349.36 29.8,340.664L44.64,346.816ZM74.112,302.8L62.768,291.456C69.776,285.376 77.544,280.176 85.912,275.968L92.016,290.704C85.568,294.04 79.6,298.144 74.112,302.8ZM106.808,284.616L100.672,269.8C109.36,266.904 118.52,265.08 128,264.408L128,280.384C120.664,280.992 113.584,282.448 106.808,284.616ZM144,264.408C153.48,265.08 162.64,266.904 171.328,269.8L165.192,284.616C158.416,282.448 151.336,280.992 144,280.384L144,264.408ZM186.096,275.968C194.464,280.176 202.224,285.368 209.24,291.456L197.896,302.8C192.4,298.152 186.44,294.04 179.992,290.704L186.096,275.968ZM220.544,302.768C226.624,309.776 231.824,317.544 236.032,325.912L221.256,332.032C217.92,325.592 213.864,319.6 209.216,314.112L220.544,302.768ZM242.2,340.664C245.096,349.352 246.92,358.512 247.592,368L231.664,368C231.056,360.664 229.528,353.592 227.352,346.816L242.2,340.664ZM216,208L248,208L248,314.168C239.88,299.52 228.968,286.656 216,276.24L216,208ZM120,168L152,168L152,249.112C146.744,248.448 141.432,248 136,248C130.568,248 125.256,248.448 120,249.112L120,168ZM136,488C76.944,488 28.536,442.024 24.408,384L56,384L56,376C56,331.888 91.888,296 136,296C180.112,296 216,331.888 216,376L216,384L247.592,384C243.464,442.024 195.056,488 136,488ZM261.664,352L280,352L280,400L261.664,400C263.152,392.216 264,384.208 264,376C264,367.792 263.152,359.784 261.664,352ZM485.696,379.32L440,396.456L440,355.544L485.688,372.672C487.072,373.192 488,374.528 488,376C488,377.472 487.072,378.808 485.696,379.32Z" style="fill:rgb(0,4,109);fill-rule:nonzero;"/>
        <path d="M424,104C441.648,104 456,89.648 456,72C456,54.352 441.648,40 424,40C406.352,40 392,54.352 392,72C392,89.648 406.352,104 424,104ZM424,56C432.824,56 440,63.176 440,72C440,80.824 432.824,88 424,88C415.176,88 408,80.824 408,72C408,63.176 415.176,56 424,56Z" style="fill:rgb(0,4,109);fill-rule:nonzero;"/>
        <path d="M48,192C70.056,192 88,174.056 88,152C88,146.976 86.968,142.208 85.264,137.768L107.296,123.744C114.576,131.272 124.728,136 136,136C150.768,136 163.552,127.864 170.48,115.92L184.624,120.64C184.248,123.048 184,125.488 184,128C184,154.472 205.528,176 232,176C245.744,176 258.128,170.16 266.888,160.872L297.904,181.552C296.752,184.84 296,188.32 296,192C296,209.648 310.352,224 328,224C345.648,224 360,209.648 360,192C360,184.816 357.536,178.248 353.528,172.904L390.64,126.512C400.368,132.488 411.768,136 424,136C459.288,136 488,107.288 488,72C488,36.712 459.288,8 424,8C388.712,8 360,36.712 360,72C360,89.304 366.928,105 378.128,116.536L341.072,162.864C337.072,161.056 332.664,160 328,160C319.824,160 312.44,163.176 306.776,168.232L275.784,147.568C278.472,141.584 280,134.976 280,128C280,101.528 258.472,80 232,80C213.68,80 197.736,90.328 189.648,105.456L175.52,100.744C175.712,99.168 176,97.624 176,96C176,73.944 158.056,56 136,56C113.944,56 96,73.944 96,96C96,101.032 97.032,105.792 98.736,110.232L76.704,124.256C69.424,116.728 59.272,112 48,112C25.944,112 8,129.944 8,152C8,174.056 25.944,192 48,192ZM424,24C450.472,24 472,45.528 472,72C472,98.472 450.472,120 424,120C397.528,120 376,98.472 376,72C376,45.528 397.528,24 424,24ZM328,176C336.824,176 344,183.176 344,192C344,200.824 336.824,208 328,208C319.176,208 312,200.824 312,192C312,183.176 319.176,176 328,176ZM232,96C249.648,96 264,110.352 264,128C264,145.648 249.648,160 232,160C214.352,160 200,145.648 200,128C200,110.352 214.352,96 232,96ZM136,72C149.232,72 160,82.768 160,96C160,109.232 149.232,120 136,120C122.768,120 112,109.232 112,96C112,82.768 122.768,72 136,72ZM48,128C61.232,128 72,138.768 72,152C72,165.232 61.232,176 48,176C34.768,176 24,165.232 24,152C24,138.768 34.768,128 48,128Z" style="fill:rgb(0,4,109);fill-rule:nonzero;"/>
    </g>
</svg>
