<svg height="512" viewBox="0 0 64 64" width="512" xmlns="http://www.w3.org/2000/svg"><g id="quality"><path d="m60.46 53.38-16.27-16.26a1 1 0 0 0 -1.41 0l-.71.71-3.99-3.99a20.079 20.079 0 1 0 -4.24 4.24l3.99 3.99-.71.71a1 1 0 0 0 0 1.41l16.26 16.27a5.006 5.006 0 0 0 7.08-7.08zm-47.4-19.27a18.608 18.608 0 0 1 -3.06-10.11c0-8.82 5.38-16 12-16s12 7.18 12 16a18.6 18.6 0 0 1 -3.06 10.13 10.416 10.416 0 0 0 .06-1.13 17.866 17.866 0 0 0 -2.25-9.18 6.835 6.835 0 0 0 .25-1.82v-6a1 1 0 0 0 -.76-.97l-8-2a.978.978 0 0 0 -.69.08l-4 2a.977.977 0 0 0 -.55.89v6a6.835 6.835 0 0 0 .25 1.82 17.866 17.866 0 0 0 -2.25 9.18 10.047 10.047 0 0 0 .06 1.11zm11.34-2.31 2.78 2.09-5.18 2.96-5.18-2.96 2.78-2.09a1.014 1.014 0 0 0 .4-.8v-2.29a7.042 7.042 0 0 0 4 0v2.29a1.014 1.014 0 0 0 .4.8zm-2.4-4.8a5 5 0 0 1 -5-5v-5.38l3.12-1.56 6.88 1.72v5.22a5 5 0 0 1 -5 5zm-5.69-.93a7.44 7.44 0 0 0 1.69 1.67v2.76l-2.99 2.24a17.26 17.26 0 0 1 1.3-6.67zm12.12 12.72a17.7 17.7 0 0 1 -12.84.01 1 1 0 0 0 .37-1.09l-.04-.11c-.23-.74-.46-1.51-.63-2.29l6.21 3.56a1.027 1.027 0 0 0 1 0l6.22-3.56c-.18.84-.42 1.64-.66 2.4a.989.989 0 0 0 .37 1.08zm-2.43-8.29v-2.76a7.44 7.44 0 0 0 1.69-1.67 17.26 17.26 0 0 1 1.3 6.67zm4.63 7.29a20.8 20.8 0 0 0 5.37-13.79c0-9.93-6.28-18-14-18s-14 8.07-14 18a20.809 20.809 0 0 0 5.42 13.82 18 18 0 1 1 17.21-.03zm4.76-.98a19.024 19.024 0 0 0 1.42-1.42l3.85 3.85-1.42 1.42zm23.65 22.23a3.066 3.066 0 0 1 -4.24 0l-15.56-15.55 4.25-4.25 15.55 15.56a2.994 2.994 0 0 1 0 4.24z"/><path d="m7 46h-4a1 1 0 0 0 -1 1v14a1 1 0 0 0 1 1h4a1 1 0 0 0 1-1v-14a1 1 0 0 0 -1-1zm-1 14h-2v-12h2z"/><path d="m15 50h-4a1 1 0 0 0 -1 1v10a1 1 0 0 0 1 1h4a1 1 0 0 0 1-1v-10a1 1 0 0 0 -1-1zm-1 10h-2v-8h2z"/><path d="m23 54h-4a1 1 0 0 0 -1 1v6a1 1 0 0 0 1 1h4a1 1 0 0 0 1-1v-6a1 1 0 0 0 -1-1zm-1 6h-2v-4h2z"/><path d="m26 57h2v2h-2z"/><path d="m37 57h-7v2h8a1 1 0 0 0 1-1v-10h-2z"/><path d="m61.71 6.29-4-4a1.033 1.033 0 0 0 -.71-.29h-12a1 1 0 0 0 -1 1v24a1 1 0 0 0 1 1h16a1 1 0 0 0 1-1v-20a1.033 1.033 0 0 0 -.29-.71zm-1.71 19.71h-14v-22h10.59l3.41 3.41z"/><path d="m52 30h2v2h-2z"/><path d="m52 37h-3v2h4a1 1 0 0 0 1-1v-4h-2z"/><path d="m48 6h8v2h-8z"/><path d="m48 10h10v2h-10z"/><path d="m48 18h10v2h-10z"/><path d="m48 14h4v2h-4z"/><path d="m54 14h4v2h-4z"/><path d="m48 22h6v2h-6z"/><path d="m56 22h2v2h-2z"/><path d="m19 18h2v2h-2z"/><path d="m23 18h2v2h-2z"/></g></svg>