<?xml version="1.0" encoding="UTF-8" standalone="no"?>
<!DOCTYPE svg PUBLIC "-//W3C//DTD SVG 1.1//EN" "http://www.w3.org/Graphics/SVG/1.1/DTD/svg11.dtd">
<svg width="100%" height="100%" viewBox="0 0 512 512" version="1.1" xmlns="http://www.w3.org/2000/svg" xmlns:xlink="http://www.w3.org/1999/xlink" xml:space="preserve" xmlns:serif="http://www.serif.com/" style="fill-rule:evenodd;clip-rule:evenodd;stroke-linejoin:round;stroke-miterlimit:1.41421;">
    <g>
        <circle cx="136" cy="128" r="8" style="fill:rgb(18,15,121);"/>
        <circle cx="184" cy="128" r="8" style="fill:rgb(18,15,121);"/>
        <path d="M190.312,157.264L191.152,155.576L176.84,148.416L176,150.112C172.952,156.208 166.824,160 160,160C153.176,160 147.048,156.208 144,150.112L143.16,148.424L128.848,155.584L129.688,157.272C135.464,168.824 147.08,176 160,176C172.92,176 184.536,168.824 190.312,157.264Z" style="fill:rgb(18,15,121);fill-rule:nonzero;"/>
        <rect x="184" y="408" width="16" height="16" style="fill:rgb(18,15,121);fill-rule:nonzero;"/>
        <rect x="184" y="440" width="16" height="16" style="fill:rgb(18,15,121);fill-rule:nonzero;"/>
        <path d="M438.312,333.376L412.296,328.648L403.464,318.056L407.936,312.088C418.296,298.272 424,281.16 424,263.888C424,252.352 421.448,240.712 416.608,230.224L390.856,174.432C380.08,151.088 356.504,136 330.8,136C322.648,136 314.656,137.488 307.056,140.408L229.808,170.12C216.76,175.136 208,187.888 208,201.856C208,207.104 209.24,212.36 211.592,217.064L212.296,218.472L198.432,216.736L193.808,198.232C207.528,189.648 217.736,176.048 221.896,159.992L224,159.992C241.648,159.992 256,145.64 256,127.992C256,120.784 253.52,114.2 249.48,108.848L252.416,100.056C254.792,92.92 256,85.488 256,77.952C256,39.376 224.624,8 186.048,8L80,8C62.352,8 48,22.352 48,40C48,49.72 52.448,58.336 59.32,64.216C57.152,70.056 56,76.288 56,82.512C56,92.92 59.048,103 64.824,111.656L66.928,114.808C65.088,118.84 64,123.288 64,128C64,145.648 78.352,160 96,160L98.104,160C102.256,176.056 112.472,189.664 126.192,198.24L121.568,216.744L80.528,221.872C67.84,223.456 55.504,228.048 44.872,235.136C21.784,250.528 8,276.288 8,304.032L8,504L504,504L504,412.088C504,373.408 476.376,340.304 438.312,333.376ZM296,488L264,488L264,328L248,328L248,488L168,488L168,379.952C198.056,358.2 216,323.616 216,286.312L216,235.064L222.552,235.88C227.32,241.136 233.488,244.872 240.352,246.704C241.024,264.152 242.952,290.144 248.416,306.536L250.232,312L265.224,312L265.936,316.288C268.896,334.032 280.528,348.2 296,355.2L296,488ZM120,284.944L132.656,278.616L143.24,290.256L132.664,334.696C124.56,320.104 120,303.568 120,286.312L120,284.944ZM160,264.944L172.472,271.184L164.456,280L155.536,280L147.52,271.184L160,264.944ZM187.344,334.696L176.768,290.256L187.352,278.616L200,284.944L200,286.312C200,303.568 195.44,320.104 187.344,334.696ZM158.32,296L161.68,296L175.056,352.16C170.544,357.28 165.576,362.04 160,366.208C154.432,362.04 149.456,357.28 144.944,352.16L158.32,296ZM311.48,224.928C316.952,222.592 323.576,225.032 326.216,230.32L344,265.88L353.696,246.504C355.696,242.496 359.728,240 364.224,240C370.712,240 376,245.288 376,251.776C376,262.68 371.752,272.936 364.04,280.64L357.176,287.504L399.504,338.304L398.68,343.224C395.808,360.448 382.16,373.392 365.272,375.648L354.16,347.856L363.576,343.152L356.416,328.84L333.768,340.16C328.76,342.672 323.152,344 317.536,344C308.976,344 301.088,341 294.84,335.992C313.36,335.928 329.728,324.112 335.584,306.536L320.408,301.472C316.712,312.552 306.384,320 294.704,320L283.368,320C282.64,317.968 282.088,315.848 281.72,313.656L278.776,296L262.016,296C258.368,281.36 256.952,260.712 256.392,247.352C259.208,246.864 261.984,246.136 264.648,244.992L311.48,224.928ZM312,359.504C313.84,359.704 315.648,360 317.536,360C325.2,360 332.84,358.232 339.768,354.976L341.36,358.968C329.288,370.168 319.416,383.208 311.992,397.536L311.992,359.504L312,359.504ZM347.76,374.936L351.384,384L340.208,411.928C335.728,408.04 332.344,403.04 330.272,397.336C335.184,389.272 341.064,381.784 347.76,374.936ZM407.768,364.536C406.616,382.424 398.832,399.368 386.008,411.792L373.16,390.384C387.832,386.816 400.296,377.44 407.768,364.536ZM235.544,185.056L312.792,155.344C318.56,153.128 324.616,152 330.8,152C350.296,152 368.16,163.44 376.328,181.136L402.08,236.928C405.952,245.328 408,254.648 408,263.888C408,277.72 403.432,291.424 395.136,302.488L392.936,305.424L378.688,288.328C387.304,278.104 392,265.304 392,251.776C392,236.464 379.536,224 364.224,224C356.824,224 349.944,226.872 344.864,231.832L340.528,223.168C335.848,213.808 326.448,208 315.992,208C312.264,208 308.632,208.744 305.184,210.216L303.904,210.768C303.352,195.928 291.192,184 276.224,184C265.632,184 256.112,189.888 251.384,199.352L248.848,204.416L263.16,211.576L265.696,206.504C267.696,202.496 271.728,200 276.224,200C282.712,200 288,205.288 288,211.776C288,214.272 287.072,216.592 285.624,218.6L258.352,230.288C255.704,231.424 252.896,232 250.016,232C241.952,232 234.704,227.52 231.096,220.312L225.904,209.92C224.656,207.424 224,204.64 224,201.856C224,194.464 228.64,187.712 235.544,185.056ZM200,233.064L200,267.056L173.504,253.808L194.888,232.424L200,233.064ZM224,144L224,112C232.824,112 240,119.176 240,128C240,136.824 232.824,144 224,144ZM80,128C80,119.176 87.176,112 96,112L96,144C87.176,144 80,136.824 80,128ZM99.392,96L96,96C89.152,96 82.84,98.208 77.624,101.88C73.976,96.064 72,89.408 72,82.512C72,78.736 72.648,74.968 73.8,71.368C75.808,71.768 77.88,72 80,72C97.648,72 112,57.648 112,40L96,40C96,48.824 88.824,56 80,56C71.176,56 64,48.824 64,40C64,31.176 71.176,24 80,24L186.048,24C215.8,24 240,48.2 240,77.952C240,83.76 239.072,89.496 237.232,95L236.096,98.408C232.36,96.88 228.28,96 224,96L220.608,96C214.416,81.896 200.36,72 184,72L136,72C119.64,72 105.584,81.896 99.392,96ZM112,144L112,112C112,98.768 122.768,88 136,88L184,88C197.232,88 208,98.768 208,112L208,144C208,170.472 186.472,192 160,192C133.528,192 112,170.472 112,144ZM160,208C166.624,208 173.016,206.984 179.032,205.112L183.144,221.552L160,244.688L136.856,221.544L140.968,205.104C146.984,206.984 153.376,208 160,208ZM125.112,232.424L146.496,253.808L120,267.056L120,233.064L125.112,232.424ZM24,304.032C24,281.648 35.12,260.864 53.744,248.448C62.32,242.728 72.272,239.024 82.512,237.744L104,235.064L104,286.312C104,323.616 121.944,358.2 152,379.952L152,488L72,488L72,328L56,328L56,488L24,488L24,304.032ZM488,488L440,488L440,457.888C440,447.424 442.472,436.944 447.16,427.576L432.848,420.416C427.056,432 424,444.952 424,457.888L424,488L312,488L312,462.48C312,445.848 315.44,429.688 321.624,414.696C326.44,421.56 332.712,427.304 340.416,431.16L348.192,435.048L361.432,401.952L381.696,435.728L388.8,430.4C410.84,413.872 424,387.552 424,360L424,347.04L435.448,349.12C465.896,354.664 488,381.144 488,412.088L488,488Z" style="fill:rgb(18,15,121);fill-rule:nonzero;"/>
        <path d="M320,256L304,256C304,264.824 296.824,272 288,272L280,272L280,288L288,288C305.648,288 320,273.648 320,256Z" style="fill:rgb(18,15,121);fill-rule:nonzero;"/>
        <rect x="320" y="72" width="16" height="48" style="fill:rgb(18,15,121);fill-rule:nonzero;"/>
        <g transform="matrix(0.707,-0.707,0.707,0.707,39.616,311.648)">
            <rect x="367.712" y="100" width="56.568" height="16" style="fill:rgb(18,15,121);fill-rule:nonzero;"/>
        </g>
        <rect x="408" y="152" width="48" height="16" style="fill:rgb(18,15,121);fill-rule:nonzero;"/>
    </g>
</svg>
