<svg id="_x33_0" enable-background="new 0 0 64 64" height="512" viewBox="0 0 64 64" width="512" xmlns="http://www.w3.org/2000/svg"><g><circle cx="17" cy="16" r="1"/><circle cx="23" cy="16" r="1"/><path d="m23.789 19.658.105-.211-1.789-.895-.105.212c-.381.762-1.147 1.236-2 1.236s-1.619-.474-2-1.236l-.105-.211-1.789.895.105.211c.722 1.444 2.174 2.341 3.789 2.341s3.067-.897 3.789-2.342z"/><path d="m23 51h2v2h-2z"/><path d="m23 55h2v2h-2z"/><path d="m54.789 41.672-3.252-.591-1.104-1.324.559-.746c1.295-1.727 2.008-3.866 2.008-6.025 0-1.442-.319-2.897-.924-4.208l-3.219-6.974c-1.347-2.918-4.294-4.804-7.507-4.804-1.019 0-2.018.186-2.968.551l-9.656 3.714c-1.631.627-2.726 2.221-2.726 3.967 0 .656.155 1.313.449 1.901l.088.176-1.733-.217-.578-2.313c1.715-1.073 2.991-2.773 3.511-4.78h.263c2.206 0 4-1.794 4-4 0-.901-.31-1.724-.815-2.393l.367-1.099c.297-.892.448-1.821.448-2.763 0-4.822-3.922-8.744-8.744-8.744h-13.256c-2.206 0-4 1.794-4 4 0 1.215.556 2.292 1.415 3.027-.271.73-.415 1.509-.415 2.287 0 1.301.381 2.561 1.103 3.643l.263.394c-.23.504-.366 1.06-.366 1.649 0 2.206 1.794 4 4 4h.263c.519 2.007 1.796 3.708 3.511 4.78l-.578 2.313-5.13.641c-1.586.198-3.128.772-4.457 1.658-2.886 1.924-4.609 5.144-4.609 8.612v24.996h62v-11.489c0-4.835-3.453-8.973-8.211-9.839zm-17.789 19.328h-4v-20h-2v20h-10v-13.506c3.757-2.719 6-7.042 6-11.705v-6.406l.819.102c.596.657 1.367 1.124 2.225 1.353.084 2.181.325 5.43 1.008 7.479l.227.683h1.874l.089.536c.37 2.218 1.824 3.989 3.758 4.864zm-22-25.382 1.582-.791 1.323 1.455-1.322 5.555c-1.013-1.824-1.583-3.891-1.583-6.048zm5-2.5 1.559.78-1.002 1.102h-1.115l-1.002-1.102zm3.418 8.719-1.322-5.555 1.323-1.455 1.581.791v.171c0 2.157-.57 4.224-1.582 6.048zm-3.628-4.837h.42l1.672 7.02c-.564.64-1.185 1.235-1.882 1.756-.696-.521-1.318-1.116-1.882-1.756zm19.145-8.884c.684-.292 1.512.013 1.842.674l2.223 4.445 1.212-2.422c.25-.501.754-.813 1.316-.813.811 0 1.472.661 1.472 1.472 0 1.363-.531 2.645-1.495 3.608l-.858.858 5.291 6.35-.103.615c-.359 2.153-2.065 3.771-4.176 4.053l-1.389-3.474 1.177-.588-.895-1.789-2.831 1.415c-.626.314-1.327.48-2.029.48-1.07 0-2.056-.375-2.837-1.001 2.315-.008 4.361-1.485 5.093-3.682l-1.897-.633c-.462 1.385-1.753 2.316-3.213 2.316h-1.417c-.091-.254-.16-.519-.206-.793l-.368-2.207h-2.095c-.456-1.83-.633-4.411-.703-6.081.352-.061.699-.152 1.032-.295zm.065 16.822c.23.025.456.062.692.062.958 0 1.913-.221 2.779-.628l.199.499c-1.509 1.4-2.743 3.03-3.671 4.821v-4.754zm4.47 1.929.453 1.133-1.397 3.491c-.56-.486-.983-1.111-1.242-1.824.614-1.008 1.349-1.944 2.186-2.8zm7.501-1.3c-.144 2.236-1.117 4.354-2.72 5.907l-1.606-2.676c1.834-.446 3.392-1.618 4.326-3.231zm-21.528-22.435 9.656-3.714c.721-.277 1.478-.418 2.251-.418 2.437 0 4.67 1.43 5.691 3.642l3.219 6.974c.484 1.05.74 2.215.74 3.37 0 1.729-.571 3.442-1.608 4.825l-.275.367-1.781-2.137c1.077-1.278 1.664-2.878 1.664-4.569 0-1.914-1.558-3.472-3.472-3.472-.925 0-1.785.359-2.42.979l-.542-1.083c-.585-1.17-1.76-1.896-3.067-1.896-.466 0-.92.093-1.351.277l-.16.069c-.069-1.855-1.589-3.346-3.46-3.346-1.324 0-2.514.736-3.105 1.919l-.317.633 1.789.895.317-.634c.25-.501.754-.813 1.316-.813.811 0 1.472.661 1.472 1.472 0 .312-.116.602-.297.853l-3.409 1.461c-.331.142-.682.214-1.042.214-1.008 0-1.914-.56-2.365-1.461l-.649-1.299c-.156-.312-.238-.66-.238-1.008 0-.924.58-1.768 1.443-2.1zm-4.443 6.001v4.249l-3.312-1.656 2.673-2.673zm3-11.133v-4c1.103 0 2 .897 2 2s-.897 2-2 2zm-18-2c0-1.103.897-2 2-2v4c-1.103 0-2-.897-2-2zm2.424-4h-.424c-.856 0-1.645.276-2.297.735-.456-.727-.703-1.559-.703-2.421 0-.472.081-.943.225-1.393.251.05.51.079.775.079 2.206 0 4-1.794 4-4h-2c0 1.103-.897 2-2 2s-2-.897-2-2 .897-2 2-2h13.256c3.719 0 6.744 3.025 6.744 6.744 0 .726-.116 1.443-.346 2.131l-.142.426c-.467-.191-.977-.301-1.512-.301h-.424c-.774-1.763-2.531-3-4.576-3h-6c-2.045 0-3.802 1.237-4.576 3zm1.576 6v-4c0-1.654 1.346-3 3-3h6c1.654 0 3 1.346 3 3v4c0 3.309-2.691 6-6 6s-6-2.691-6-6zm6 8c.828 0 1.627-.127 2.379-.361l.514 2.055-2.893 2.892-2.893-2.893.514-2.055c.752.235 1.551.362 2.379.362zm-4.361 3.053 2.673 2.673-3.312 1.656v-4.249zm-12.639 8.951c0-2.798 1.39-5.396 3.718-6.948 1.072-.715 2.316-1.178 3.596-1.338l2.686-.335v6.406c0 4.663 2.243 8.986 6 11.705v13.506h-10v-20h-2v20h-4zm58 22.996h-6v-3.764c0-1.308.309-2.618.895-3.789l-1.789-.895c-.724 1.448-1.106 3.067-1.106 4.684v3.764h-14v-3.19c0-2.079.43-4.099 1.203-5.973.602.858 1.386 1.576 2.349 2.058l.972.486 1.655-4.137 2.533 4.222.888-.666c2.755-2.066 4.4-5.356 4.4-8.8v-1.62l1.431.26c3.806.693 6.569 4.003 6.569 7.871z"/><path d="m40 32h-2c0 1.103-.897 2-2 2h-1v2h1c2.206 0 4-1.794 4-4z"/><path d="m40 9h2v6h-2z"/><path d="m45.964 12.5h7.071v2h-7.071z" transform="matrix(.707 -.707 .707 .707 4.952 38.956)"/><path d="m51 19h6v2h-6z"/></g></svg>