<?xml version="1.0"?>
<svg xmlns="http://www.w3.org/2000/svg" viewBox="0 0 64 64" width="512" height="512"><g id="teamwork-team-worldwide-money-financail"><path d="M32,2A11,11,0,1,0,43,13,11.007,11.007,0,0,0,32,2Zm8.94,10H36.98a23.513,23.513,0,0,0-.32-3.05,11.038,11.038,0,0,0,2.4-1.52A8.95,8.95,0,0,1,40.94,12ZM37.65,6a8.734,8.734,0,0,1-1.44.95,12.77,12.77,0,0,0-.89-2.31A9.184,9.184,0,0,1,37.65,6ZM32,4c.76,0,1.73,1.35,2.36,3.68A9.265,9.265,0,0,1,32,8a9.265,9.265,0,0,1-2.36-.32C30.27,5.35,31.24,4,32,4ZM24.94,7.43a11.038,11.038,0,0,0,2.4,1.52A23.513,23.513,0,0,0,27.02,12H23.06A8.95,8.95,0,0,1,24.94,7.43ZM23.06,14h3.96a23.513,23.513,0,0,0,.32,3.05,11.038,11.038,0,0,0-2.4,1.52A8.95,8.95,0,0,1,23.06,14Zm3.29,6a8.734,8.734,0,0,1,1.44-.95,12.77,12.77,0,0,0,.89,2.31A9.184,9.184,0,0,1,26.35,20ZM27.79,6.95A8.734,8.734,0,0,1,26.35,6a9.184,9.184,0,0,1,2.33-1.36A12.77,12.77,0,0,0,27.79,6.95ZM32,22c-.76,0-1.73-1.35-2.36-3.68a8.862,8.862,0,0,1,4.72,0C33.73,20.65,32.76,22,32,22Zm2.76-5.64a10.76,10.76,0,0,0-5.52,0A20.617,20.617,0,0,1,29.02,14h5.96A20.617,20.617,0,0,1,34.76,16.36ZM29.02,12a20.617,20.617,0,0,1,.22-2.36A11.054,11.054,0,0,0,32,10a11.054,11.054,0,0,0,2.76-.36A20.617,20.617,0,0,1,34.98,12Zm6.3,9.36a12.77,12.77,0,0,0,.89-2.31,8.734,8.734,0,0,1,1.44.95A9.184,9.184,0,0,1,35.32,21.36Zm3.74-2.79a11.038,11.038,0,0,0-2.4-1.52A23.513,23.513,0,0,0,36.98,14h3.96A8.95,8.95,0,0,1,39.06,18.57Z"/><path d="M56,23H55V21.58A5.014,5.014,0,0,0,58,17V13a5,5,0,0,0-5-5H51a5,5,0,0,0-5,5v4a5.014,5.014,0,0,0,3,4.58V23H48a6,6,0,0,0-6,6V39a1,1,0,0,0,1,1H61a1,1,0,0,0,1-1V29A6,6,0,0,0,56,23ZM51,10h2a3,3,0,0,1,2.98,2.78l-3.78-.76a.9.9,0,0,0-.4,0l-3.78.76A3,3,0,0,1,51,10Zm-3,7V14.82l4-.8,4,.8V17a3.009,3.009,0,0,1-3,3H51A3.009,3.009,0,0,1,48,17Zm5,5v1a1.094,1.094,0,0,1-.13.5A1,1,0,0,1,51,23V22Zm7,16H44V29a4,4,0,0,1,4-4h1.79a3.008,3.008,0,0,0,1.21.81V34h2V25.81A3.008,3.008,0,0,0,54.21,25H56a4,4,0,0,1,4,4Z"/><path d="M16,23H15V21.58A5.014,5.014,0,0,0,18,17V13a5,5,0,0,0-5-5H11a5,5,0,0,0-5,5v4a5.014,5.014,0,0,0,3,4.58V23H8a6,6,0,0,0-6,6V39a1,1,0,0,0,1,1H21a1,1,0,0,0,1-1V29A6,6,0,0,0,16,23ZM11,10h2a3,3,0,0,1,2.98,2.78l-3.78-.76a.9.9,0,0,0-.4,0l-3.78.76A3,3,0,0,1,11,10ZM8,17V14.82l4-.8,4,.8V17a3.009,3.009,0,0,1-3,3H11A3.009,3.009,0,0,1,8,17Zm5,5v1a1.094,1.094,0,0,1-.13.5A1,1,0,0,1,11,23V22Zm7,16H4V29a4,4,0,0,1,4-4H9.79a3.008,3.008,0,0,0,1.21.81V34h2V25.81A3.008,3.008,0,0,0,14.21,25H16a4,4,0,0,1,4,4Z"/><path d="M32,40A11,11,0,1,0,43,51,11.013,11.013,0,0,0,32,40Zm0,20a9,9,0,1,1,9-9A9.01,9.01,0,0,1,32,60Z"/><path d="M32,48a1,1,0,0,1,1,1h2a3,3,0,0,0-2-2.816V45H31v1.184A2.993,2.993,0,0,0,32,52a1,1,0,1,1-1,1H29a3,3,0,0,0,2,2.816V57h2V55.816A2.993,2.993,0,0,0,32,50a1,1,0,0,1,0-2Z"/><path d="M15.707,48.293l-1.414,1.414L15.586,51H12V42H10V52a1,1,0,0,0,1,1h4.586l-1.293,1.293,1.414,1.414,3-3a1,1,0,0,0,0-1.414Z"/><path d="M52,51H48.414l1.293-1.293-1.414-1.414-3,3a1,1,0,0,0,0,1.414l3,3,1.414-1.414L48.414,53H53a1,1,0,0,0,1-1V42H52Z"/><path d="M33,38V34.816A3,3,0,0,0,34.816,33H40V31H34.816A3,3,0,0,0,33,29.184V26H31v3.184A3,3,0,0,0,29.184,31H24v2h5.184A3,3,0,0,0,31,34.816V38Zm-1-7a1,1,0,1,1-1,1A1,1,0,0,1,32,31Z"/></g></svg>
