<?xml version="1.0" encoding="UTF-8" standalone="no"?>
<!DOCTYPE svg PUBLIC "-//W3C//DTD SVG 1.1//EN" "http://www.w3.org/Graphics/SVG/1.1/DTD/svg11.dtd">
<svg width="100%" height="100%" viewBox="0 0 512 512" version="1.1" xmlns="http://www.w3.org/2000/svg" xmlns:xlink="http://www.w3.org/1999/xlink" xml:space="preserve" xmlns:serif="http://www.serif.com/" style="fill-rule:evenodd;clip-rule:evenodd;stroke-linejoin:round;stroke-miterlimit:1.41421;">
    <g id="teamwork-team-worldwide-money-financail">
        <path d="M256,16C207.725,16 168,55.725 168,104C168,152.275 207.725,192 256,192C304.275,192 344,152.275 344,104C343.969,55.736 304.264,16.031 256,16ZM327.52,96L295.84,96C295.519,87.82 294.663,79.669 293.28,71.6C300.177,68.391 306.631,64.303 312.48,59.44C320.824,69.973 326.037,82.645 327.52,96ZM301.2,48C297.62,50.907 293.761,53.453 289.68,55.6C287.911,49.224 285.526,43.035 282.56,37.12C289.275,39.809 295.556,43.476 301.2,48ZM256,32C262.08,32 269.84,42.8 274.88,61.44C268.723,63.102 262.377,63.962 256,64C249.623,63.962 243.277,63.102 237.12,61.44C242.16,42.8 249.92,32 256,32ZM199.52,59.44C205.369,64.303 211.823,68.391 218.72,71.6C217.337,79.669 216.481,87.82 216.16,96L184.48,96C185.963,82.645 191.176,69.973 199.52,59.44ZM184.48,112L216.16,112C216.481,120.18 217.337,128.331 218.72,136.4C211.823,139.609 205.369,143.697 199.52,148.56C191.176,138.027 185.963,125.355 184.48,112ZM210.8,160C214.38,157.093 218.239,154.547 222.32,152.4C224.089,158.776 226.474,164.965 229.44,170.88C222.725,168.191 216.444,164.524 210.8,160ZM222.32,55.6C218.239,53.453 214.38,50.907 210.8,48C216.444,43.476 222.725,39.809 229.44,37.12C226.474,43.035 224.089,49.224 222.32,55.6ZM256,176C249.92,176 242.16,165.2 237.12,146.56C249.474,143.147 262.526,143.147 274.88,146.56C269.84,165.2 262.08,176 256,176ZM278.08,130.88C263.611,127.04 248.389,127.04 233.92,130.88C232.972,124.626 232.384,118.322 232.16,112L279.84,112C279.616,118.322 279.028,124.626 278.08,130.88ZM232.16,96C232.384,89.678 232.972,83.374 233.92,77.12C241.129,79.006 248.548,79.974 256,80C263.452,79.974 270.871,79.006 278.08,77.12C279.028,83.374 279.616,89.678 279.84,96L232.16,96ZM282.56,170.88C285.526,164.965 287.911,158.776 289.68,152.4C293.761,154.547 297.62,157.093 301.2,160C295.556,164.524 289.275,168.191 282.56,170.88ZM312.48,148.56C306.631,143.697 300.177,139.609 293.28,136.4C294.663,128.331 295.519,120.18 295.84,112L327.52,112C326.037,125.355 320.824,138.027 312.48,148.56Z" style="fill:rgb(135,21,27);fill-rule:nonzero;"/>
        <path d="M448,184L440,184L440,172.64C454.524,166.27 463.963,151.859 464,136L464,104C464,82.057 445.943,64 424,64L408,64C386.057,64 368,82.057 368,104L368,136C368.037,151.859 377.476,166.27 392,172.64L392,184L384,184C357.668,184 336,205.668 336,232L336,312C336,316.389 339.611,320 344,320L488,320C492.389,320 496,316.389 496,312L496,232C496,205.668 474.332,184 448,184ZM408,80L424,80C436.467,80.05 446.926,89.806 447.84,102.24L417.6,96.16C416.547,95.92 415.453,95.92 414.4,96.16L384.16,102.24C385.074,89.806 395.533,80.05 408,80ZM384,136L384,118.56L416,112.16L448,118.56L448,136C447.961,149.151 437.151,159.961 424,160L408,160C394.849,159.961 384.039,149.151 384,136ZM424,176L424,184C423.978,185.397 423.621,186.769 422.96,188C421.541,190.503 418.877,192.056 416,192.056C411.611,192.056 408,188.445 408,184.056C408,184.037 408,184.019 408,184L408,176L424,176ZM480,304L352,304L352,232C352,214.445 366.445,200 384,200L398.32,200C400.967,202.92 404.292,205.145 408,206.48L408,272L424,272L424,206.48C427.708,205.145 431.033,202.92 433.68,200L448,200C465.555,200 480,214.445 480,232L480,304Z" style="fill:rgb(135,21,27);fill-rule:nonzero;"/>
        <path d="M128,184L120,184L120,172.64C134.524,166.27 143.963,151.859 144,136L144,104C144,82.057 125.943,64 104,64L88,64C66.057,64 48,82.057 48,104L48,136C48.037,151.859 57.476,166.27 72,172.64L72,184L64,184C37.668,184 16,205.668 16,232L16,312C16,316.389 19.611,320 24,320L168,320C172.389,320 176,316.389 176,312L176,232C176,205.668 154.332,184 128,184ZM88,80L104,80C116.467,80.05 126.926,89.806 127.84,102.24L97.6,96.16C96.547,95.92 95.453,95.92 94.4,96.16L64.16,102.24C65.074,89.806 75.533,80.05 88,80ZM64,136L64,118.56L96,112.16L128,118.56L128,136C127.961,149.151 117.151,159.961 104,160L88,160C74.849,159.961 64.039,149.151 64,136ZM104,176L104,184C103.978,185.397 103.621,186.769 102.96,188C101.541,190.503 98.877,192.056 96,192.056C91.611,192.056 88,188.445 88,184.056C88,184.037 88,184.019 88,184L88,176L104,176ZM160,304L32,304L32,232C32,214.445 46.445,200 64,200L78.32,200C80.967,202.92 84.292,205.145 88,206.48L88,272L104,272L104,206.48C107.708,205.145 111.033,202.92 113.68,200L128,200C145.555,200 160,214.445 160,232L160,304Z" style="fill:rgb(135,21,27);fill-rule:nonzero;"/>
        <path d="M256,320C207.725,320 168,359.725 168,408C168,456.275 207.725,496 256,496C304.275,496 344,456.275 344,408C343.943,359.746 304.254,320.057 256,320ZM256,480C216.502,480 184,447.498 184,408C184,368.502 216.502,336 256,336C295.498,336 328,368.502 328,408C327.956,447.481 295.481,479.956 256,480Z" style="fill:rgb(135,21,27);fill-rule:nonzero;"/>
        <path d="M256,384C260.389,384 264,387.611 264,392L280,392C279.958,381.89 273.532,372.842 264,369.472L264,360L248,360L248,369.472C238.443,372.838 232.011,381.923 232.011,392.056C232.011,405.191 242.819,416 255.955,416C255.97,416 255.985,416 256,416C260.389,416 264,419.611 264,424C264,428.389 260.389,432 256,432C251.611,432 248,428.389 248,424L232,424C232.042,434.11 238.468,443.158 248,446.528L248,456L264,456L264,446.528C273.557,443.162 279.989,434.077 279.989,423.944C279.989,410.809 269.181,400 256.045,400C256.03,400 256.015,400 256,400C251.611,400 248,396.389 248,392C248,387.611 251.611,384 256,384Z" style="fill:rgb(135,21,27);fill-rule:nonzero;"/>
        <path d="M125.656,386.344L114.344,397.656L124.688,408L96,408L96,336L80,336L80,416C80,420.389 83.611,424 88,424L124.688,424L114.344,434.344L125.656,445.656L149.656,421.656C152.758,418.553 152.758,413.447 149.656,410.344L125.656,386.344Z" style="fill:rgb(135,21,27);fill-rule:nonzero;"/>
        <path d="M416,408L387.312,408L397.656,397.656L386.344,386.344L362.344,410.344C359.242,413.447 359.242,418.553 362.344,421.656L386.344,445.656L397.656,434.344L387.312,424L424,424C428.389,424 432,420.389 432,416L432,336L416,336L416,408Z" style="fill:rgb(135,21,27);fill-rule:nonzero;"/>
        <path d="M264,304L264,278.528C270.771,276.109 276.109,270.771 278.528,264L320,264L320,248L278.528,248C276.109,241.229 270.771,235.891 264,233.472L264,208L248,208L248,233.472C241.229,235.891 235.891,241.229 233.472,248L192,248L192,264L233.472,264C235.891,270.771 241.229,276.109 248,278.528L248,304L264,304ZM256,248C260.389,248 264,251.611 264,256C264,260.389 260.389,264 256,264C251.611,264 248,260.389 248,256C248,251.611 251.611,248 256,248Z" style="fill:rgb(135,21,27);fill-rule:nonzero;"/>
    </g>
</svg>
